<?xml version="1.0" encoding="UTF-8"?>
<svg width="226px" height="65px" viewBox="0 0 226 65" version="1.1" xmlns="http://www.w3.org/2000/svg" xmlns:xlink="http://www.w3.org/1999/xlink">
    <!-- Generator: Sketch 51.2 (57519) - http://www.bohemiancoding.com/sketch -->
    <title>play white</title>
    <desc>Created with Sketch.</desc>
    <defs>
        <path d="M181.85366,4.12006252 L219.673238,28.7923813 C221.986029,30.3011746 222.637799,33.399181 221.129005,35.7119724 C220.742245,36.3048275 220.234011,36.808805 219.637925,37.1905659 L182.315821,61.0933325 C179.990423,62.5826228 176.898007,61.9048235 175.408717,59.5794256 C174.902598,58.7891649 174.629095,57.8724211 174.619485,56.9340311 L174.12201,8.35894579 C174.093731,5.59766685 176.309265,3.33628315 179.070544,3.30800393 C180.058089,3.29789013 181.026512,3.58045693 181.85366,4.12006252 Z" id="path-1"></path>
        <filter x="-8.6%" y="-1.8%" width="111.4%" height="104.0%" filterUnits="objectBoundingBox" id="filter-2">
            <feMorphology radius="0.5" operator="dilate" in="SourceAlpha" result="shadowSpreadOuter1"></feMorphology>
            <feOffset dx="0" dy="0" in="shadowSpreadOuter1" result="shadowOffsetOuter1"></feOffset>
            <feGaussianBlur stdDeviation="1" in="shadowOffsetOuter1" result="shadowBlurOuter1"></feGaussianBlur>
            <feColorMatrix values="0 0 0 0 0   0 0 0 0 0   0 0 0 0 0  0 0 0 0.05 0" type="matrix" in="shadowBlurOuter1"></feColorMatrix>
        </filter>
    </defs>
    <g id="Page-1" stroke="none" stroke-width="1" fill="none" fill-rule="evenodd">
        <g id="superfood" transform="translate(-787.000000, -5108.000000)">
            <g id="Group-33" transform="translate(749.000000, 4875.000000)">
                <g id="play-white" transform="translate(39.000000, 233.000000)">
                    <g id="Combined-Shape">
                        <use fill="black" fill-opacity="1" filter="url(#filter-2)" xlink:href="#path-1"></use>
                        <use fill="#FFFFFF" fill-rule="evenodd" xlink:href="#path-1"></use>
                    </g>
                    <g id="Group-16" opacity="0.600000024" transform="translate(0.000000, 25.000000)" stroke="#FFFFFF">
                        <path d="M2.23947239,24.6806641 C2.11772699,23.8616496 2.01535171,23.1367219 1.93234348,22.5058594 C1.84933526,21.8749968 1.77186207,21.2911811 1.69992161,20.7543945 C1.62798114,20.217608 1.55604176,19.7057316 1.4841013,19.21875 C1.41216083,18.7317684 1.32915385,18.2254258 1.23507786,17.699707 C1.14100187,17.1739883 1.03032589,16.6012401 0.903046608,15.9814453 C0.775767326,15.3616505 0.618054059,14.6477905 0.429902077,13.8398437 C0.341359967,13.3528621 0.416066252,12.9073913 0.65402317,12.503418 C0.891980089,12.0994446 1.22400802,11.759116 1.65011692,11.4824219 C2.07622582,11.2057278 2.57426772,10.9926765 3.14425755,10.8432617 C3.71424737,10.6938469 4.28976245,10.6246744 4.87082005,10.6357422 C5.45187764,10.64681 6.01079132,10.7436514 6.54757786,10.9262695 C7.0843644,11.1088876 7.5409028,11.3938783 7.91720676,11.78125 C8.29351073,12.1686217 8.55636617,12.6583629 8.70578098,13.2504883 C8.85519579,13.8426136 8.8358275,14.5592406 8.64767551,15.4003906 C8.40418471,16.2083374 8.14132927,16.850258 7.8591013,17.3261719 C7.57687332,17.8020857 7.2171764,18.1756171 6.77999973,18.4467773 C6.34282307,18.7179376 5.79497698,18.9116205 5.13644505,19.027832 C4.47791311,19.1440435 3.64507638,19.240885 2.63790989,19.3183594 L2.10665989,19.0527344 L2.10665989,19.1855469 C2.12879542,19.31836 2.16476511,19.5535465 2.21457005,19.8911133 C2.26437498,20.2286801 2.31694607,20.5828432 2.37228489,20.9536133 C2.42762371,21.3243834 2.4801948,21.6785465 2.52999973,22.0161133 C2.57980467,22.3536801 2.61577436,22.5888665 2.63790989,22.7216797 C2.67111318,22.799154 2.70708287,22.9402659 2.74582005,23.1450195 C2.78455722,23.3497732 2.81499311,23.5711251 2.83712864,23.809082 C2.85926417,24.047039 2.87033176,24.2766916 2.87033176,24.4980469 C2.87033176,24.7194021 2.85096347,24.888183 2.8122263,25.0043945 C2.77348912,25.120606 2.70985044,25.1621095 2.62130833,25.1289062 C2.53276622,25.095703 2.40548884,24.9462904 2.23947239,24.6806641 Z M1.87423801,17.7744141 C1.89637354,17.962566 1.91574184,18.0870765 1.93234348,18.1479492 C1.94894513,18.2088219 1.96554652,18.2558592 1.98214817,18.2890625 C1.99874982,18.3222658 2.01811811,18.37207 2.04025364,18.4384766 C2.06238917,18.5048831 2.08452436,18.6266267 2.10665989,18.8037109 C2.30587964,18.5934234 2.53276539,18.4744468 2.78732395,18.4467773 C3.04188252,18.4191079 3.31580556,18.416341 3.6091013,18.4384766 C3.90239703,18.4606121 4.20952287,18.4772135 4.53048801,18.4882812 C4.85145316,18.499349 5.17794729,18.4467779 5.5099802,18.3305664 C5.84201311,18.2143549 6.17404104,18.0040705 6.50607395,17.699707 C6.83810686,17.3953435 7.15906719,16.9332713 7.46896458,16.3134766 C7.82313301,15.6162075 8.02511667,14.9991889 8.07492161,14.4624023 C8.12472654,13.9256158 8.06938856,13.4635436 7.90890598,13.0761719 C7.74842341,12.6888001 7.49940246,12.3789074 7.16183567,12.1464844 C6.82426888,11.9140613 6.44520366,11.7452805 6.02462864,11.6401367 C5.60405362,11.534993 5.15858281,11.4934895 4.68820286,11.515625 C4.2178229,11.5377605 3.7668183,11.6152337 3.33517551,11.7480469 C2.90353273,11.88086 2.51339991,12.0690092 2.16476536,12.3125 C1.8161308,12.5559908 1.54774156,12.8492821 1.35958958,13.1923828 C1.32638629,13.2366539 1.31808559,13.3722319 1.33468723,13.5991211 C1.35128888,13.8260102 1.37619097,14.0971664 1.40939426,14.4125977 C1.44259756,14.7280289 1.48410105,15.0683575 1.53390598,15.4335937 C1.58371092,15.79883 1.63351511,16.1446924 1.68332005,16.4711914 C1.73312498,16.7976904 1.77462847,17.0799142 1.80783176,17.3178711 C1.84103506,17.555828 1.86317025,17.7080075 1.87423801,17.7744141 Z M11.580449,23.7509766 C11.5361779,23.5738923 11.5029751,23.3304052 11.4808396,23.0205078 C11.4587041,22.7106104 11.4476365,22.364748 11.4476365,21.9829102 C11.4476365,21.6010723 11.4504034,21.1998719 11.4559373,20.7792969 C11.4614711,20.3587219 11.4697718,19.9492207 11.4808396,19.5507812 C11.4919074,19.1523418 11.4946743,18.7815772 11.4891404,18.4384766 C11.4836065,18.0953759 11.469772,17.8131521 11.4476365,17.5917969 C11.4365687,17.4257804 11.4227342,17.1795264 11.4061326,16.8530273 C11.3895309,16.5265283 11.3701626,16.1585307 11.3480271,15.7490234 C11.3258916,15.3395162 11.3009895,14.9078799 11.2733201,14.4541016 C11.2456507,14.0003233 11.2262824,13.56592 11.2152146,13.1508789 C11.2041468,12.7358378 11.198613,12.3540056 11.198613,12.0053711 C11.198613,11.6567365 11.2096806,11.3883473 11.2318162,11.2001953 C11.3978326,11.0563144 11.5334107,11.0922841 11.6385545,11.3081055 C11.7436982,11.5239269 11.8239383,11.8338196 11.8792771,12.237793 C11.9346159,12.6417663 11.9705856,13.0983047 11.9871873,13.6074219 C12.0037889,14.116539 12.0120896,14.5979795 12.0120896,15.0517578 C12.0120896,15.5055361 12.0065558,15.8873682 11.995488,16.1972656 C11.9844203,16.507163 11.9788865,16.6676432 11.9788865,16.6787109 C12.0342253,17.7190807 12.070195,18.7456004 12.0867966,19.7583008 C12.1033983,20.7710012 12.1559694,21.791987 12.2445115,22.8212891 C12.3551891,23.0315766 12.413294,23.2556954 12.4188279,23.4936523 C12.4243618,23.7316093 12.391159,23.9225253 12.3192185,24.0664062 C12.2472781,24.2102872 12.1449028,24.271159 12.0120896,24.2490234 C11.8792764,24.2268879 11.7353977,24.0608739 11.580449,23.7509766 Z M14.9614646,23.3857422 C14.7401094,23.1643869 14.5630278,22.8268252 14.4302146,22.3730469 C14.2974015,21.9192686 14.2060938,21.4046253 14.1562889,20.8291016 C14.1064839,20.2535779 14.0981832,19.6420931 14.1313865,18.9946289 C14.1645898,18.3471647 14.2392961,17.7163117 14.3555076,17.1020508 C14.4717191,16.4877899 14.6266655,15.9150417 14.8203514,15.3837891 C15.0140372,14.8525364 15.2519906,14.4125994 15.5342185,14.0639648 C15.8164465,13.7153303 16.1374069,13.4884445 16.4971092,13.3833008 C16.8568115,13.278157 17.2580119,13.3417957 17.7007225,13.5742187 C17.8556711,13.6627609 18.0189182,13.8121734 18.1904685,14.0224609 C18.3620189,14.2327484 18.525266,14.4679349 18.6802146,14.7280273 C18.8351633,14.9881198 18.9707414,15.2482083 19.0869529,15.5083008 C19.2031644,15.7683932 19.2889383,15.9869783 19.3442771,16.1640625 C19.3553449,16.2194013 19.3581118,16.3881822 19.3525779,16.6704102 C19.347044,16.9526381 19.3387433,17.2929668 19.3276756,17.6914062 C19.3166078,18.0898457 19.3193747,18.5297827 19.3359764,19.0112305 C19.352578,19.4926782 19.3913146,19.9630511 19.4521873,20.4223633 C19.51306,20.8816755 19.6099015,21.307778 19.7427146,21.7006836 C19.8755278,22.0935892 20.0526094,22.4034819 20.2739646,22.6303711 C20.4953199,22.8572602 20.7747768,22.9790038 21.1123435,22.9956055 C21.4499103,23.0122071 21.8621784,22.876629 22.34916,22.5888672 C22.5262442,22.4339185 22.6313864,22.281739 22.6645896,22.1323242 C22.6977929,21.9829094 22.7143943,21.855632 22.7143943,21.7504883 C22.7143943,21.6453445 22.7254619,21.576172 22.7475975,21.5429687 C22.769733,21.5097655 22.8693414,21.5374345 23.0464256,21.6259766 C23.2677809,21.9137384 23.3424871,22.2208643 23.2705467,22.5473633 C23.1986062,22.8738623 23.038126,23.1616198 22.7891014,23.4106445 C22.5400767,23.6596692 22.227417,23.8367508 21.8511131,23.9418945 C21.4748091,24.0470383 21.0902101,24.0221362 20.6973045,23.8671875 C20.3043989,23.7122388 19.9308675,23.3968123 19.576699,22.9208984 C19.2225306,22.4449846 18.9403068,21.7532597 18.7300193,20.8457031 C18.6636127,21.0338551 18.5612375,21.2662747 18.4228904,21.5429687 C18.2845434,21.8196628 18.1212963,22.0963528 17.9331443,22.3730469 C17.7449923,22.649741 17.5319411,22.9098295 17.2939842,23.1533203 C17.0560273,23.3968111 16.8097732,23.5794265 16.5552146,23.7011719 C16.3006561,23.8229173 16.0378006,23.8699546 15.7666404,23.8422852 C15.4954802,23.8146157 15.227091,23.6624363 14.9614646,23.3857422 Z M15.1108787,22.3398437 C15.2990307,22.7382832 15.5203826,22.9541014 15.7749412,22.9873047 C16.0294998,23.020508 16.2895883,22.9208996 16.5552146,22.6884766 C16.820841,22.4560535 17.0836964,22.1184918 17.3437889,21.6757812 C17.6038813,21.2330707 17.8252333,20.7322619 18.0078514,20.1733398 C18.1904695,19.6144178 18.3288144,19.0278351 18.4228904,18.4135742 C18.5169664,17.7993133 18.5335678,17.2099638 18.4726951,16.6455078 C18.4118224,16.0810519 18.2651767,15.5664086 18.0327537,15.1015625 C17.8003307,14.6367164 17.4461675,14.2714857 16.9702537,14.0058594 C16.9591859,13.9947916 16.9398176,13.9892578 16.9121482,13.9892578 L16.8374412,13.9892578 C16.4943405,14.1442065 16.1955154,14.4098288 15.9409568,14.7861328 C15.6863983,15.1624368 15.4678132,15.6051407 15.2851951,16.1142578 C15.102577,16.6233749 14.9614651,17.171221 14.8618553,17.7578125 C14.7622454,18.344404 14.7069074,18.9199191 14.6958396,19.484375 C14.6847719,20.0488309 14.7124409,20.5828425 14.7788475,21.0864258 C14.845254,21.590009 14.95593,22.0078108 15.1108787,22.3398437 Z M28.2038084,34.1933594 C27.8275045,34.0052074 27.5701828,33.6178415 27.4318358,33.03125 C27.2934887,32.4446585 27.2464514,31.7584675 27.2907225,30.9726562 C27.3349935,30.186845 27.459504,29.3567752 27.6642576,28.4824219 C27.8690113,27.6080685 28.1346336,26.7890663 28.4611326,26.0253906 C28.7876317,25.2617149 29.16393,24.6114936 29.5900389,24.074707 C30.0161478,23.5379205 30.4726862,23.2086595 30.9596678,23.0869141 C30.9707356,23.0205075 30.9818032,22.9125984 30.9928709,22.7631836 C31.0039387,22.6137688 31.0150063,22.4560555 31.0260741,22.2900391 C31.0371418,22.1240226 31.0482094,21.9663093 31.0592772,21.8168945 C31.0703449,21.6674797 31.0758787,21.5595706 31.0758787,21.4931641 C31.0869465,21.2496733 31.0924803,20.9370136 31.0924803,20.5551758 L31.0924803,18.5131836 C31.0924803,18.2530911 31.0869465,18.1175131 31.0758787,18.1064453 L30.9596678,17.9902344 C30.8711257,18.1451831 30.6940441,18.4108054 30.4284178,18.7871094 C30.1627915,19.1634133 29.8473649,19.5729145 29.4821287,20.015625 C29.1168925,20.4583355 28.7129252,20.8982726 28.2702147,21.3354492 C27.8275041,21.7726259 27.3792664,22.1323228 26.9254881,22.4145508 C26.4717098,22.6967788 26.0290059,22.8572589 25.5973631,22.8959961 C25.1657203,22.9347333 24.7728206,22.77702 24.4186522,22.4228516 C24.241568,22.2568351 24.1225913,21.9995135 24.0617186,21.6508789 C24.0008459,21.3022444 23.9731769,20.9148784 23.9787108,20.4887695 C23.9842447,20.0626606 24.0174474,19.6144229 24.0783201,19.144043 C24.1391928,18.673663 24.2083653,18.2254253 24.2858397,17.7993164 C24.363314,17.3732075 24.4380203,16.9913754 24.5099608,16.6538086 C24.5819012,16.3162418 24.6344723,16.064454 24.6676756,15.8984375 C24.7230144,15.7656243 24.8087883,15.6798505 24.9249998,15.6411133 C25.0412114,15.6023761 25.1546542,15.5968423 25.2653319,15.6245117 C25.3760095,15.6521811 25.4673172,15.7130529 25.5392576,15.8071289 C25.6111981,15.9012049 25.6305664,16.0146478 25.5973631,16.1474609 C25.4756177,16.612307 25.3677086,17.0605447 25.2736326,17.4921875 C25.1795567,17.9238303 25.1020835,18.3554666 25.0412108,18.7871094 C24.9803381,19.2187522 24.9416015,19.6559223 24.9249998,20.0986328 C24.9083982,20.5413434 24.9166989,21.0061825 24.9499022,21.4931641 C25.1712575,21.7919937 25.4424136,21.922038 25.7633787,21.8833008 C26.0843439,21.8445636 26.4274394,21.7062186 26.7926756,21.4682617 C27.1579118,21.2303048 27.5286763,20.9176452 27.9049803,20.5302734 C28.2812843,20.1429017 28.6299136,19.750002 28.9508787,19.3515625 C29.2718439,18.953123 29.5513007,18.5795916 29.7892576,18.230957 C30.0272146,17.8823225 30.1959954,17.6250008 30.2956053,17.4589844 C30.3952152,17.2929679 30.4754553,17.1048188 30.536328,16.8945312 C30.5972007,16.6842437 30.6636062,16.4767263 30.7355467,16.2719727 C30.8074872,16.067219 30.8904942,15.8707692 30.9845701,15.6826172 C31.0786461,15.4944652 31.2031566,15.3450526 31.3581053,15.234375 L31.8727537,15.7490234 L31.8727537,22.5556641 C31.9280926,22.5667318 32.0581368,22.561198 32.2628905,22.5390625 C32.4676441,22.516927 32.6474925,22.5058594 32.8024412,22.5058594 C32.9573899,22.5058594 33.0486976,22.5362953 33.076367,22.597168 C33.1040364,22.6580407 32.9684584,22.7770173 32.6696287,22.9541016 C32.51468,23.0426437 32.3625006,23.1339514 32.2130858,23.2280273 C32.063671,23.3221033 31.9059577,23.4023434 31.7399412,23.46875 C31.6403314,24.4095099 31.5462568,25.2368128 31.4577147,25.9506836 C31.3691726,26.6645544 31.2695642,27.3479785 31.1588866,28.0009766 C31.0482089,28.6539746 30.9153977,29.3235643 30.7604491,30.0097656 C30.6055004,30.695967 30.4118174,31.4817664 30.1793944,32.3671875 C30.0908523,32.5664072 29.9940108,32.8015937 29.888867,33.0727539 C29.7837233,33.3439141 29.6564459,33.5874013 29.5070311,33.8032227 C29.3576163,34.019044 29.1777678,34.1739904 28.9674803,34.2680664 C28.7571928,34.3621424 28.502638,34.3372403 28.2038084,34.1933594 Z M28.7350584,33.1474609 C28.8457361,33.2249353 28.9785472,33.0810565 29.1334959,32.7158203 C29.2884446,32.3505841 29.4461579,31.8608429 29.6066405,31.246582 C29.767123,30.6323211 29.9220694,29.948897 30.0714842,29.1962891 C30.220899,28.4436811 30.3537102,27.7187535 30.4699217,27.0214844 C30.5861332,26.3242153 30.6774409,25.7099636 30.7438475,25.1787109 C30.8102541,24.6474583 30.8379231,24.2932952 30.8268553,24.1162109 C30.3288059,24.5478537 29.8916358,25.0486625 29.5153319,25.6186523 C29.1390279,26.1886422 28.8319021,26.79736 28.5939451,27.4448242 C28.3559882,28.0922884 28.1927412,28.7563443 28.1041991,29.4370117 C28.0156569,30.1176792 28.0045893,30.7900357 28.0709959,31.4541016 C28.0820637,31.5537114 28.101432,31.6837557 28.1291014,31.8442383 C28.1567708,32.0047209 28.1844398,32.1624341 28.2121092,32.3173828 C28.2397786,32.4723315 28.2646807,32.6051427 28.2868162,32.7158203 C28.3089518,32.8264979 28.3255532,32.8873697 28.3366209,32.8984375 L28.7350584,33.1474609 Z M50.8037304,23.7509766 C50.7041205,23.5738923 50.6321811,23.3802094 50.5879101,23.1699219 C50.543639,22.9596344 50.5187369,22.7438162 50.513203,22.5224609 C50.5076691,22.3011057 50.5215036,22.0825206 50.5547069,21.8666992 C50.5879102,21.6508778 50.6266468,21.4433604 50.6709179,21.2441406 C50.6819856,20.5800748 50.7124215,19.8911169 50.7622265,19.1772461 C50.8120314,18.4633753 50.8397004,17.7412146 50.8452343,17.0107422 C50.8507682,16.2802698 50.8064978,15.5525752 50.7124218,14.8276367 C50.6183458,14.1026982 50.4384973,13.391605 50.172871,12.6943359 C49.8187026,12.6500649 49.4258028,12.6583656 48.9941601,12.7192383 C48.5625173,12.780111 48.1253472,12.8658849 47.6826366,12.9765625 C47.2399261,13.0872401 46.8138236,13.200683 46.4043163,13.3168945 C45.9948091,13.433106 45.6406459,13.5299475 45.3418163,13.6074219 C45.264342,13.7180995 45.1619667,13.7706706 45.0346874,13.7651367 C44.9074081,13.7596028 44.7939652,13.7180993 44.6943554,13.640625 C44.5947455,13.5631507 44.525573,13.4635423 44.4868358,13.3417969 C44.4480987,13.2200515 44.4730008,13.0927741 44.5615429,12.9599609 C44.7496949,12.8935544 45.1259932,12.7994798 45.6904491,12.6777344 C46.2549051,12.555989 46.9217278,12.4259447 47.6909374,12.2875977 C48.460147,12.1492506 49.2929837,12.0136725 50.1894726,11.8808594 C51.0859614,11.7480462 51.9713692,11.6346033 52.8457226,11.5405273 C53.7200759,11.4464514 54.5390781,11.3828127 55.3027538,11.3496094 C56.0664295,11.3164061 56.6972826,11.3330075 57.1953319,11.3994141 C57.6933813,11.4658206 58.0198754,11.593098 58.1748241,11.78125 C58.3297728,11.969402 58.2356982,12.2350243 57.8925976,12.578125 L57.7763866,12.578125 C57.7321156,12.5559895 57.6408079,12.5117191 57.5024608,12.4453125 C57.3641138,12.3789059 57.2783399,12.3291017 57.2451366,12.2958984 C56.2047668,12.2737629 55.1754803,12.2682291 54.157246,12.2792969 C53.1390117,12.2903646 52.1207928,12.389973 51.1025585,12.578125 C51.1025585,12.6002605 51.1108592,12.6638992 51.1274608,12.769043 C51.1440625,12.8741867 51.1634308,12.9903965 51.1855663,13.1176758 C51.2077018,13.2449551 51.2270701,13.3639317 51.2436718,13.4746094 C51.2602734,13.585287 51.2685741,13.6516926 51.2685741,13.6738281 C51.3571162,14.6256558 51.417988,15.5110636 51.4511913,16.3300781 C51.4843946,17.1490926 51.5037629,17.9570273 51.5092968,18.7539062 C51.5148307,19.5507852 51.5092969,20.3614868 51.4926952,21.1860352 C51.4760936,22.0105835 51.4622591,22.9042921 51.4511913,23.8671875 C51.417988,23.9557296 51.3709507,24.0083007 51.310078,24.0249023 C51.2492053,24.041504 51.1855666,24.0359702 51.1191601,24.0083008 C51.0527535,23.9806314 50.9891148,23.9391279 50.9282421,23.8837891 C50.8673694,23.8284502 50.8258659,23.7841799 50.8037304,23.7509766 Z M59.762871,23.8671875 C59.342296,23.6901033 59.0241026,23.4632175 58.8082812,23.1865234 C58.5924598,22.9098293 58.4347465,22.6054704 58.3351367,22.2734375 C58.2355268,21.9414046 58.174655,21.5872415 58.1525195,21.2109375 C58.1303839,20.8346335 58.1027149,20.4528014 58.0695117,20.0654297 C57.8149531,20.1097007 57.5659321,20.129069 57.3224413,20.1235352 C57.0789505,20.1180013 56.8658993,20.0958661 56.6832812,20.0571289 C56.5006631,20.0183917 56.3706188,19.9630537 56.2931445,19.8911133 C56.2156701,19.8191728 56.2073694,19.7416996 56.2682421,19.6586914 C56.3291148,19.5756832 56.4812943,19.4899093 56.7247851,19.4013672 C56.9682759,19.3128251 57.3279728,19.2298181 57.8038867,19.1523437 C57.8702932,19.1523437 57.9671347,19.119141 58.094414,19.0527344 C58.2216933,18.9863278 58.2963996,18.9365236 58.3185351,18.9033203 C58.3960094,18.7926427 58.4679488,18.6017266 58.5343554,18.3305664 C58.600762,18.0594062 58.6699345,17.7578142 58.7418749,17.4257812 C58.8138154,17.0937483 58.9023562,16.7589535 59.0074999,16.4213867 C59.1126437,16.0838199 59.2454549,15.7932955 59.4059374,15.5498047 C59.56642,15.3063139 59.760103,15.1347661 59.9869921,15.0351562 C60.2138813,14.9355464 60.4933381,14.9576816 60.825371,15.1015625 C60.8585743,15.123698 60.9056116,15.1652015 60.9664843,15.2260742 L61.3483202,15.6079102 C61.4091929,15.6687829 61.4506964,15.7158201 61.472832,15.7490234 C61.517103,16.2913439 61.4839002,16.7506492 61.3732226,17.1269531 C61.262545,17.5032571 61.1131324,17.8214505 60.9249804,18.081543 C60.7368284,18.3416354 60.5265441,18.5602205 60.294121,18.7373047 C60.061698,18.9143889 59.840346,19.0831698 59.6300585,19.2436523 C59.419771,19.4041349 59.2399226,19.567382 59.0905077,19.7333984 C58.9410929,19.8994149 58.8608529,20.1041654 58.8497851,20.3476562 C58.8276496,20.6354181 58.816582,20.8982735 58.816582,21.1362305 C58.816582,21.3741874 58.844251,21.5983062 58.8995898,21.8085937 C58.9549286,22.0188813 59.0490032,22.218098 59.1818163,22.40625 C59.3146295,22.594402 59.5083125,22.7770173 59.762871,22.9541016 C59.951023,23.0869147 60.1834426,23.1201175 60.4601367,23.0537109 C60.7368307,22.9873044 61.0190545,22.8710946 61.3068163,22.7050781 C61.5945782,22.5390617 61.8768019,22.3509125 62.153496,22.140625 C62.4301901,21.9303375 62.6681435,21.750489 62.8673632,21.6010742 C63.066583,21.4516594 63.2104617,21.3548179 63.2990038,21.3105469 C63.3875459,21.2662758 63.3875459,21.3326814 63.2990038,21.5097656 C63.1440551,21.8750018 62.9614398,22.2402325 62.7511523,22.6054687 C62.5408648,22.970705 62.2918438,23.2805977 62.004082,23.5351562 C61.7163201,23.7897148 61.3870591,23.9584957 61.016289,24.0415039 C60.6455189,24.1245121 60.2277171,24.0664072 59.762871,23.8671875 Z M59.231621,17.8408203 L59.1652148,18.1728516 C59.1320115,18.338868 59.1154101,18.449544 59.1154101,18.5048828 C59.1264779,18.5159506 59.1458461,18.5214844 59.1735156,18.5214844 C59.201185,18.5214844 59.2205533,18.5159506 59.231621,18.5048828 C59.2648243,18.4827473 59.3146285,18.4467776 59.3810351,18.3969727 L59.5802538,18.2475586 C59.6466604,18.1977537 59.7102991,18.1479495 59.7711718,18.0981445 C59.8320445,18.0483396 59.873548,18.0123699 59.8956835,17.9902344 C60.2277164,17.6582015 60.4629029,17.3510756 60.6012499,17.0688477 C60.739597,16.7866197 60.8087695,16.556967 60.8087695,16.3798828 C60.8087695,16.2027986 60.7506646,16.0838219 60.6344531,16.0229492 C60.5182415,15.9620765 60.3798966,15.9814448 60.219414,16.0810547 C60.0589314,16.1806646 59.8901506,16.3715806 59.7130663,16.6538086 C59.5359821,16.9360366 59.375502,17.3317032 59.231621,17.8408203 Z M67.5765039,24.0830078 C67.476894,24.027669 67.3413159,23.9584965 67.1697656,23.8754883 C66.9982153,23.7924801 66.8183668,23.6956386 66.6302148,23.5849609 C66.4420628,23.4742833 66.2622144,23.3553066 66.090664,23.2280273 C65.9191137,23.1007481 65.7780018,22.9624031 65.6673242,22.8129883 C65.5566465,22.6635735 65.4957748,22.5058602 65.484707,22.3398437 C65.4736392,22.1738273 65.534511,22.0022795 65.6673242,21.8251953 C65.6894597,21.8030598 65.764166,21.8611647 65.8914453,21.9995117 C66.0187246,22.1378588 66.1819716,22.3038727 66.3811914,22.4975586 C66.5804111,22.6912445 66.8072969,22.8904612 67.0618554,23.0952148 C67.316414,23.2999685 67.5765025,23.4549148 67.8421289,23.5600586 C68.1077552,23.6652023 68.3733775,23.6984051 68.6390039,23.659668 C68.9046302,23.6209308 69.1481173,23.4576837 69.3694726,23.1699219 C69.4580147,23.0481765 69.5216534,22.9070646 69.5603906,22.746582 C69.5991278,22.5860995 69.6129623,22.4228524 69.6018945,22.2568359 C69.5908267,22.0908195 69.5659246,21.9275724 69.5271875,21.7670898 C69.4884503,21.6066073 69.4358792,21.4599616 69.3694726,21.3271484 C69.2255917,21.0172511 69.0014728,20.7018245 68.6971093,20.3808594 C68.3927458,20.0598942 68.0662517,19.7334001 67.7176172,19.4013672 C67.3689826,19.0693343 67.028654,18.7317725 66.6966211,18.3886719 C66.3645882,18.0455712 66.1044996,17.6969419 65.9163476,17.3427734 C65.7281956,16.988605 65.636888,16.631675 65.6424218,16.2719727 C65.6479557,15.9122703 65.8112028,15.5442727 66.1321679,15.1679687 C66.3867265,14.8802069 66.7049199,14.7363281 67.0867578,14.7363281 C67.4685956,14.7363281 67.8448939,14.8193351 68.215664,14.9853516 C68.5864341,15.151368 68.9129282,15.3644193 69.1951562,15.6245117 C69.4773842,15.8846042 69.6516989,16.136392 69.7181054,16.3798828 C69.7513087,16.4794927 69.7623763,16.5874018 69.7513086,16.7036133 C69.7402408,16.8198248 69.707038,16.9166663 69.6516992,16.9941406 C69.5963604,17.071615 69.5161203,17.1241861 69.4109765,17.1518555 C69.3058328,17.1795249 69.1702547,17.1601566 69.0042382,17.09375 C68.8160863,17.0273434 68.6694406,16.8834646 68.5642968,16.6621094 C68.4591531,16.4407541 68.3484771,16.222169 68.2322656,16.0063477 C68.1160541,15.7905263 67.9666415,15.6189785 67.7840234,15.4916992 C67.6014053,15.3644199 67.3330161,15.3561192 66.9788476,15.4667969 C66.5804081,15.59961 66.36459,15.8015937 66.3313867,16.0727539 C66.2981834,16.3439141 66.3784235,16.6538069 66.5721093,17.0024414 C66.7657952,17.351076 67.0314175,17.7163067 67.3689843,18.0981445 C67.7065511,18.4799824 68.0496467,18.8424462 68.3982812,19.1855469 C68.7469158,19.5286475 69.0595754,19.8357734 69.3362695,20.1069336 C69.6129636,20.3780938 69.7845114,20.5745437 69.8509179,20.6962891 C69.9837311,20.9508476 70.1027078,21.2690411 70.2078515,21.6508789 C70.3129953,22.0327168 70.348965,22.4062482 70.3157617,22.7714844 C70.2825584,23.1367206 70.1608148,23.454914 69.9505273,23.7260742 C69.7402398,23.9972344 69.3860767,24.1494139 68.8880273,24.1826172 C68.8216207,24.193685 68.730313,24.2019856 68.6141015,24.2075195 C68.49789,24.2130534 68.3789133,24.2158203 68.2571679,24.2158203 C68.1354225,24.2158203 68.0109121,24.2047527 67.8836328,24.1826172 C67.7563535,24.1604817 67.6539782,24.1272789 67.5765039,24.0830078 Z M74.5102539,23.8671875 C74.5102539,23.6569 74.5185546,23.3746762 74.5351562,23.0205078 C74.5517579,22.6663394 74.5655924,22.2789735 74.5766602,21.8583984 C74.5877279,21.4378234 74.5932617,21.0061871 74.5932617,20.5634766 C74.5932617,20.120766 74.5821941,19.7057311 74.5600586,19.3183594 C74.5379231,18.9309876 74.5019534,18.5934259 74.4521484,18.3056641 C74.4023435,18.0179022 74.333171,17.8242192 74.2446289,17.7246094 C73.5473598,17.7799482 73.0161151,17.7744144 72.6508789,17.7080078 C72.2856427,17.6416012 72.1002604,17.5530604 72.0947266,17.4423828 C72.0891927,17.3317052 72.2745749,17.2127285 72.6508789,17.0854492 C73.0271829,16.9581699 73.6082317,16.8668623 74.394043,16.8115234 C74.394043,16.6787103 74.3968099,16.4435238 74.4023437,16.105957 C74.4078776,15.7683902 74.4106445,15.4114602 74.4106445,15.0351562 C74.4106445,14.6588523 74.4078776,14.3046892 74.4023437,13.9726562 C74.3968099,13.6406233 74.394043,13.4082038 74.394043,13.2753906 C74.3829752,13.1979163 74.3663738,13.0927741 74.3442383,12.9599609 C74.3221028,12.8271478 74.2999676,12.6860359 74.277832,12.5366211 C74.2556965,12.3872063 74.2390951,12.2377937 74.2280273,12.0883789 C74.2169596,11.9389641 74.2224934,11.8144536 74.2446289,11.7148437 C74.2667644,11.5820306 74.3248693,11.4907229 74.4189453,11.440918 C74.5130213,11.391113 74.6098628,11.3689778 74.7094727,11.3745117 C74.8090825,11.3800456 74.9003902,11.4132484 74.9833984,11.4741211 C75.0664067,11.5349938 75.1079102,11.6152339 75.1079102,11.7148437 L75.1079102,16.6787109 C75.1079102,16.7893886 75.2462551,16.8419597 75.5229492,16.8364258 C75.7996433,16.8308919 76.137205,16.8059898 76.5356445,16.7617187 C76.934084,16.7174477 77.3518858,16.6704104 77.7890625,16.6206055 C78.2262392,16.5708005 78.6025375,16.556966 78.9179687,16.5791016 C79.2334,16.6012371 79.4464513,16.6759434 79.5571289,16.8032227 C79.6678065,16.9305019 79.601401,17.149087 79.3579102,17.4589844 C79.3357746,17.4811199 79.2915042,17.5087889 79.2250977,17.5419922 C79.1586911,17.5751955 79.1144207,17.5917969 79.0922852,17.5917969 C78.4946259,17.5696613 77.8637729,17.5641275 77.199707,17.5751953 C76.5356412,17.5862631 75.9047881,17.6360673 75.3071289,17.7246094 C75.1079092,17.7578127 75.0000001,17.9431949 74.9833984,18.2807617 C74.9667968,18.6183285 74.9944658,19.0305965 75.0664062,19.5175781 C75.1383467,20.0045597 75.2213537,20.5219699 75.3154297,21.0698242 C75.4095057,21.6176785 75.4676106,22.1184873 75.4897461,22.5722656 C75.5118816,23.0260439 75.4648443,23.3940416 75.3486328,23.6762695 C75.2324213,23.9584975 74.9972348,24.0664066 74.6430664,24 C74.6209309,24 74.5932619,23.9833986 74.5600586,23.9501953 C74.5268553,23.916992 74.5102539,23.889323 74.5102539,23.8671875 Z M81.2447852,23.6015625 C81.2226497,23.5351559 81.2060483,23.3110371 81.1949805,22.9291992 C81.1839127,22.5473614 81.175612,22.0852892 81.1700782,21.5429687 C81.1645443,21.0006483 81.1673112,20.4112988 81.1783789,19.7749023 C81.1894467,19.1385059 81.2032812,18.5408557 81.2198828,17.9819336 C81.2364845,17.4230115 81.2586197,16.9388041 81.2862891,16.5292969 C81.3139585,16.1197896 81.3443944,15.8597011 81.3775977,15.7490234 C81.4440043,15.7158201 81.5159437,15.7158201 81.593418,15.7490234 C81.6708923,15.7822267 81.7400648,15.8264971 81.8009375,15.8818359 C81.8618102,15.9371748 81.9143813,16.0035803 81.9586524,16.0810547 C82.0029234,16.158529 82.0250586,16.2249346 82.0250586,16.2802734 L82.0250586,23.6015625 C82.0250586,23.7233079 81.9918558,23.8146156 81.9254493,23.8754883 C81.8590427,23.936361 81.7788026,23.9667969 81.6847266,23.9667969 C81.5906506,23.9667969 81.5021098,23.936361 81.4191016,23.8754883 C81.3360934,23.8146156 81.2779885,23.7233079 81.2447852,23.6015625 Z M81.3775977,13.1591797 C81.3665299,13.1259764 81.3582292,13.0789391 81.3526953,13.0180664 C81.3471615,12.9571937 81.3443946,12.8907881 81.3443946,12.8188477 C81.3443946,12.7469072 81.3471615,12.6805016 81.3526953,12.6196289 C81.3582292,12.5587562 81.3665299,12.5172527 81.3775977,12.4951172 C81.4661398,12.4508461 81.5657482,12.4121095 81.6764258,12.3789062 C81.7871035,12.345703 81.9033132,12.3401692 82.0250586,12.3623047 C82.2132106,12.6057955 82.3321873,12.8022453 82.3819922,12.9516602 C82.4317972,13.101075 82.4345641,13.2172847 82.390293,13.300293 C82.3460219,13.3833012 82.2713157,13.4331054 82.1661719,13.449707 C82.0610282,13.4663087 81.9531191,13.4635418 81.8424414,13.4414062 C81.7317638,13.4192707 81.6293885,13.383301 81.5353125,13.3334961 C81.4412365,13.2836912 81.3886655,13.2255863 81.3775977,13.1591797 Z M95.4168165,23.7509766 C95.3946809,23.7177733 95.367012,23.6679691 95.3338087,23.6015625 C95.3006054,23.5351559 95.2729364,23.4659834 95.2508008,23.394043 C95.2286653,23.3221025 95.2065301,23.2584638 95.1843946,23.203125 C95.1622591,23.1477862 95.1511915,23.1090496 95.1511915,23.0869141 C95.1622592,22.9541009 95.1816275,22.7493503 95.2092969,22.4726562 C95.2369664,22.1959622 95.2646353,21.8860694 95.2923048,21.5429687 C95.3199742,21.1998681 95.3476432,20.8346374 95.3753126,20.4472656 C95.402982,20.0598939 95.4168165,19.6918963 95.4168165,19.3432617 C95.4168165,18.9946272 95.402982,18.6764337 95.3753126,18.3886719 C95.3476432,18.10091 95.2950721,17.8795581 95.2175977,17.7246094 C95.0958523,17.4700508 94.9160039,17.2819017 94.6780469,17.1601562 C94.44009,17.0384108 94.1827684,16.9664715 93.9060743,16.9443359 C93.2752118,16.8889971 92.7522678,16.9996731 92.3372266,17.2763672 C91.9221855,17.5530613 91.5818569,17.9210589 91.3162305,18.3803711 C91.0506042,18.8396833 90.8430868,19.3515597 90.6936719,19.9160156 C90.5442571,20.4804716 90.4169798,21.020017 90.311836,21.534668 C90.2066922,22.049319 90.1070839,22.4975567 90.0130079,22.8793945 C89.9189319,23.2612324 89.7999552,23.5019526 89.6560743,23.6015625 C89.5453966,23.6790368 89.454089,23.7067058 89.3821485,23.6845703 C89.310208,23.6624348 89.2493363,23.6098637 89.1995313,23.5268555 C89.1497264,23.4438472 89.1082229,23.3497727 89.0750196,23.2446289 C89.0418163,23.1394852 89.0196811,23.0426437 89.0086133,22.9541016 C89.0196811,22.5445943 89.050117,22.0465524 89.0999219,21.4599609 C89.1497269,20.8733695 89.1856966,20.2701854 89.2078321,19.6503906 C89.2299676,19.0305959 89.2272007,18.4357125 89.1995313,17.8657227 C89.1718619,17.2957328 89.086088,16.8170592 88.9422071,16.4296875 C88.7761906,15.9648414 88.5991091,15.6881515 88.4109571,15.5996094 C88.2228051,15.5110673 88.0291222,15.5553377 87.8299024,15.7324219 C87.6306827,15.9095061 87.4342328,16.1917298 87.2405469,16.5791016 C87.0468611,16.9664733 86.8614788,17.4036434 86.6843946,17.890625 C86.5073104,18.3776066 86.3412964,18.8867161 86.1863477,19.4179687 C86.031399,19.9492214 85.895821,20.4500302 85.7796094,20.9204102 C85.6633979,21.3907901 85.5665564,21.7975243 85.4890821,22.140625 C85.4116078,22.4837257 85.3673374,22.7106114 85.3562696,22.8212891 C85.3230663,23.0426443 85.2345255,23.1588541 85.0906446,23.1699219 C84.9467637,23.1809896 84.8084187,23.1311854 84.6756055,23.0205078 C84.5427924,22.9098302 84.4514847,22.7604176 84.4016798,22.5722656 C84.3518748,22.3841136 84.4044459,22.2070321 84.5593946,22.0410156 C84.5704624,21.8528636 84.5759962,21.5651061 84.5759962,21.1777344 C84.5759962,20.7903626 84.5704624,20.3531925 84.5593946,19.8662109 C84.5483268,19.3792293 84.5400261,18.864586 84.5344923,18.3222656 C84.5289584,17.7799452 84.5261915,17.2597681 84.5261915,16.7617187 C84.5261915,16.2636694 84.5344922,15.8126648 84.5510938,15.4086914 C84.5676955,15.004718 84.5925976,14.6920584 84.6258008,14.4707031 C84.6479364,14.33789 84.6977406,14.2631837 84.7752149,14.246582 C84.8526893,14.2299804 84.9356962,14.2438149 85.0242383,14.2880859 C85.1127805,14.332357 85.1930205,14.3987626 85.264961,14.4873047 C85.3369015,14.5758468 85.3839388,14.6588538 85.4060743,14.7363281 C85.4614131,14.9576834 85.4973828,15.1762685 85.5139844,15.3920898 C85.5305861,15.6079112 85.5444206,15.8237294 85.5554883,16.0395508 L85.5886915,16.6870117 C85.5997592,16.9028331 85.632962,17.1214182 85.6883008,17.3427734 C85.7879107,17.1324859 85.9207219,16.8779312 86.0867383,16.5791016 C86.2527548,16.2802719 86.440904,15.9925144 86.6511915,15.7158203 C86.861479,15.4391262 87.0855978,15.1956391 87.3235548,14.9853516 C87.5615117,14.7750641 87.799465,14.6477867 88.0374219,14.6035156 C88.2753789,14.5592446 88.5050315,14.6228833 88.7263868,14.7944336 C88.9477421,14.9659839 89.1524926,15.2897112 89.3406446,15.765625 C89.3959834,15.9205737 89.4485545,16.1170235 89.4983594,16.3549805 C89.5481644,16.5929374 89.6007355,16.8391914 89.6560743,17.09375 C89.7114131,17.3483086 89.7778187,17.5945626 89.855293,17.8325195 C89.9327674,18.0704765 90.0213082,18.2558587 90.120918,18.3886719 C90.30907,18.2779942 90.4723171,18.1285817 90.6106641,17.9404297 C90.7490112,17.7522777 90.8873561,17.5558278 91.0257032,17.3510742 C91.1640502,17.1463206 91.3134628,16.9498707 91.4739454,16.7617187 C91.634428,16.5735668 91.8364116,16.4186204 92.0799024,16.296875 C92.8989169,16.0201809 93.5768073,15.9371739 94.1135938,16.0478516 C94.6503804,16.1585292 95.0792498,16.3937156 95.4002149,16.753418 C95.7211801,17.1131203 95.9508327,17.561358 96.0891798,18.0981445 C96.2275268,18.6349311 96.305,19.1910779 96.3216016,19.7666016 C96.3382033,20.3421253 96.3077674,20.9038059 96.230293,21.4516602 C96.1528187,21.9995145 96.0587441,22.4560529 95.9480665,22.8212891 L96.0642774,22.9541016 C96.1196162,23.0094404 96.2496605,22.9707038 96.4544141,22.8378906 C96.6591678,22.7050775 96.8832866,22.5556649 97.1267774,22.3896484 C97.3702682,22.223632 97.6026878,22.0714525 97.824043,21.9331055 C98.0453983,21.7947584 98.2003447,21.7421873 98.2888868,21.7753906 L98.2888868,22.0410156 C98.2003447,22.11849 98.0924356,22.2374666 97.9651563,22.3979492 C97.837877,22.5584318 97.6939983,22.7272127 97.5335157,22.9042969 C97.3730331,23.0813811 97.2014854,23.2556958 97.0188673,23.4272461 C96.8362492,23.5987964 96.6536338,23.7343745 96.4710157,23.8339844 C96.2883976,23.9335942 96.1057822,23.9833984 95.9231641,23.9833984 C95.740546,23.9833984 95.5717652,23.9059253 95.4168165,23.7509766 Z M100.956035,23.8671875 C100.63507,23.6236967 100.397117,23.3553075 100.242168,23.0620117 C100.087219,22.768716 99.9848441,22.4588232 99.9350392,22.1323242 C99.8852342,21.8058252 99.8852342,21.4682635 99.9350392,21.1196289 C99.9848441,20.7709944 100.05955,20.4195981 100.15916,20.0654297 C100.225567,19.8440744 100.289206,19.5784521 100.350078,19.2685547 C100.410951,18.9586573 100.485657,18.6459977 100.574199,18.3305664 C100.662741,18.0151351 100.767884,17.7218438 100.889629,17.4506836 C101.011374,17.1795234 101.160787,16.9664721 101.337871,16.8115234 C101.448549,16.7119136 101.592428,16.6372073 101.769512,16.5874023 C101.946596,16.5375974 102.129211,16.5099284 102.317363,16.5043945 C102.505515,16.4988606 102.688131,16.5016275 102.865215,16.5126953 C103.042299,16.5237631 103.186178,16.5348307 103.296856,16.5458984 C103.783837,16.5791017 104.160135,16.7423488 104.425762,17.0356445 C104.691388,17.3289403 104.86847,17.6914041 104.957012,18.1230469 C105.045554,18.5546897 105.059388,19.0361302 104.998516,19.5673828 C104.937643,20.0986355 104.815899,20.6215795 104.633281,21.1362305 C104.450663,21.6508815 104.221011,22.1350889 103.944317,22.5888672 C103.667622,23.0426455 103.36603,23.4106431 103.039531,23.6928711 C102.713032,23.9750991 102.369937,24.1438799 102.010234,24.1992187 C101.650532,24.2545576 101.299136,24.1438816 100.956035,23.8671875 Z M101.205059,22.9541016 C101.481753,23.1754568 101.780578,23.225261 102.101543,23.1035156 C102.422508,22.9817702 102.729634,22.7548845 103.02293,22.4228516 C103.316226,22.0908187 103.579081,21.6896182 103.811504,21.2192383 C104.043927,20.7488583 104.209941,20.2784854 104.309551,19.8081055 C104.409161,19.3377255 104.425762,18.9005554 104.359356,18.496582 C104.292949,18.0926087 104.115867,17.7910166 103.828106,17.5917969 C103.418598,17.3151028 103.031232,17.2293289 102.665996,17.3344727 C102.30076,17.4396164 101.9798,17.6554346 101.703106,17.9819336 C101.426411,18.3084326 101.196759,18.7151668 101.014141,19.2021484 C100.831523,19.68913 100.712546,20.1761043 100.657207,20.6630859 C100.601868,21.1500675 100.615703,21.603839 100.698711,22.0244141 C100.781719,22.4449891 100.9505,22.7548818 101.205059,22.9541016 Z M106.87709,23.8671875 C106.854954,23.845052 106.827285,23.8007816 106.794082,23.734375 L106.727676,23.6015625 C106.760879,23.4576816 106.796849,23.1339543 106.835586,22.6303711 C106.874323,22.1267878 106.918594,21.5429721 106.968399,20.8789062 C107.018204,20.2148404 107.079075,19.5231156 107.151016,18.8037109 C107.222956,18.0843063 107.303196,17.4423856 107.391738,16.8779297 C107.480281,16.3134737 107.585423,15.8790705 107.707168,15.574707 C107.828914,15.2703435 107.967258,15.1956372 108.122207,15.3505859 C108.45424,15.5940767 108.764133,15.9012026 109.051895,16.2719727 C109.339657,16.6427427 109.616346,17.0439432 109.881973,17.4755859 C110.147599,17.9072287 110.404921,18.3526995 110.653945,18.8120117 C110.90297,19.2713239 111.163059,19.708494 111.434219,20.1235352 C111.705379,20.5385763 111.993137,20.9148746 112.2975,21.2524414 C112.601864,21.5900082 112.931125,21.8528636 113.285293,22.0410156 L113.401504,22.0410156 C113.42364,21.7753893 113.448542,21.4461283 113.476211,21.0532227 C113.50388,20.660317 113.534316,20.2314476 113.56752,19.7666016 C113.600723,19.3017555 113.633926,18.8230819 113.667129,18.3305664 C113.700332,17.8380509 113.741836,17.3566104 113.791641,16.8862305 C113.841446,16.4158505 113.894017,15.9814473 113.949356,15.5830078 C114.004694,15.1845683 114.065566,14.8470066 114.131973,14.5703125 C114.143041,14.548177 114.167943,14.5011397 114.20668,14.4291992 C114.245417,14.3572588 114.289687,14.2853194 114.339492,14.2133789 C114.389297,14.1414384 114.441868,14.0833336 114.497207,14.0390625 C114.552546,13.9947914 114.607884,13.9947914 114.663223,14.0390625 L115.443496,14.8359375 C115.4767,14.8691408 115.457331,14.9383133 115.385391,15.043457 C115.31345,15.1486008 115.227676,15.2648106 115.128067,15.3920898 C115.028457,15.5193691 114.928848,15.6411127 114.829238,15.7573242 C114.729629,15.8735357 114.674291,15.9593096 114.663223,16.0146484 C114.585748,16.3024103 114.519343,16.6482727 114.464004,17.0522461 C114.408665,17.4562195 114.364395,17.8878558 114.331192,18.347168 C114.297988,18.8064802 114.270319,19.27962 114.248184,19.7666016 C114.226048,20.2535832 114.20668,20.726723 114.190078,21.1860352 C114.173477,21.6453473 114.162409,22.0797506 114.156875,22.4892578 C114.151341,22.8987651 114.143041,23.2529282 114.131973,23.5517578 C113.733533,23.54069 113.351701,23.4189465 112.986465,23.1865234 C112.621229,22.9541004 112.269833,22.6469746 111.932266,22.2651367 C111.594699,21.8832989 111.268205,21.4516626 110.952774,20.9702148 C110.637342,20.4887671 110.332983,20.0017928 110.039688,19.5092773 C109.746392,19.0167619 109.461401,18.5325545 109.184707,18.0566406 C108.908013,17.5807268 108.642391,17.1601581 108.387832,16.7949219 L108.238418,16.7949219 C108.194147,16.7949219 108.158177,16.9138985 108.130508,17.1518555 C108.102839,17.3898124 108.077936,17.6969382 108.055801,18.0732422 C108.033665,18.4495462 108.01153,18.8784156 107.989395,19.3598633 C107.967259,19.841311 107.936823,20.3227515 107.898086,20.8041992 C107.859349,21.2856469 107.812312,21.7449522 107.756973,22.1821289 C107.701634,22.6193056 107.635228,22.9873032 107.557754,23.2861328 C107.48028,23.5849624 107.386205,23.7952468 107.275527,23.9169922 C107.16485,24.0387376 107.032039,24.0221362 106.87709,23.8671875 Z M117.380176,23.6015625 C117.35804,23.5351559 117.341439,23.3110371 117.330371,22.9291992 C117.319303,22.5473614 117.311003,22.0852892 117.305469,21.5429687 C117.299935,21.0006483 117.302702,20.4112988 117.31377,19.7749023 C117.324837,19.1385059 117.338672,18.5408557 117.355274,17.9819336 C117.371875,17.4230115 117.39401,16.9388041 117.42168,16.5292969 C117.449349,16.1197896 117.479785,15.8597011 117.512988,15.7490234 C117.579395,15.7158201 117.651334,15.7158201 117.728809,15.7490234 C117.806283,15.7822267 117.875456,15.8264971 117.936328,15.8818359 C117.997201,15.9371748 118.049772,16.0035803 118.094043,16.0810547 C118.138314,16.158529 118.160449,16.2249346 118.160449,16.2802734 L118.160449,23.6015625 C118.160449,23.7233079 118.127247,23.8146156 118.06084,23.8754883 C117.994433,23.936361 117.914193,23.9667969 117.820117,23.9667969 C117.726041,23.9667969 117.637501,23.936361 117.554492,23.8754883 C117.471484,23.8146156 117.413379,23.7233079 117.380176,23.6015625 Z M117.512988,13.1591797 C117.501921,13.1259764 117.49362,13.0789391 117.488086,13.0180664 C117.482552,12.9571937 117.479785,12.8907881 117.479785,12.8188477 C117.479785,12.7469072 117.482552,12.6805016 117.488086,12.6196289 C117.49362,12.5587562 117.501921,12.5172527 117.512988,12.4951172 C117.601531,12.4508461 117.701139,12.4121095 117.811817,12.3789062 C117.922494,12.345703 118.038704,12.3401692 118.160449,12.3623047 C118.348601,12.6057955 118.467578,12.8022453 118.517383,12.9516602 C118.567188,13.101075 118.569955,13.2172847 118.525684,13.300293 C118.481413,13.3833012 118.406706,13.4331054 118.301563,13.449707 C118.196419,13.4663087 118.08851,13.4635418 117.977832,13.4414062 C117.867155,13.4192707 117.764779,13.383301 117.670703,13.3334961 C117.576627,13.2836912 117.524056,13.2255863 117.512988,13.1591797 Z M120.894004,23.3857422 C120.672649,23.1643869 120.495567,22.8268252 120.362754,22.3730469 C120.229941,21.9192686 120.138633,21.4046253 120.088828,20.8291016 C120.039023,20.2535779 120.030723,19.6420931 120.063926,18.9946289 C120.097129,18.3471647 120.171836,17.7163117 120.288047,17.1020508 C120.404259,16.4877899 120.559205,15.9150417 120.752891,15.3837891 C120.946577,14.8525364 121.18453,14.4125994 121.466758,14.0639648 C121.748986,13.7153303 122.069946,13.4884445 122.429649,13.3833008 C122.789351,13.278157 123.190551,13.3417957 123.633262,13.5742187 C123.788211,13.6627609 123.951458,13.8121734 124.123008,14.0224609 C124.294558,14.2327484 124.457805,14.4679349 124.612754,14.7280273 C124.767703,14.9881198 124.903281,15.2482083 125.019492,15.5083008 C125.135704,15.7683932 125.221478,15.9869783 125.276817,16.1640625 C125.287884,16.2194013 125.290651,16.3881822 125.285117,16.6704102 C125.279584,16.9526381 125.271283,17.2929668 125.260215,17.6914062 C125.249147,18.0898457 125.251914,18.5297827 125.268516,19.0112305 C125.285117,19.4926782 125.323854,19.9630511 125.384727,20.4223633 C125.445599,20.8816755 125.542441,21.307778 125.675254,21.7006836 C125.808067,22.0935892 125.985149,22.4034819 126.206504,22.6303711 C126.427859,22.8572602 126.707316,22.9790038 127.044883,22.9956055 C127.38245,23.0122071 127.794718,22.876629 128.281699,22.5888672 C128.458784,22.4339185 128.563926,22.281739 128.597129,22.1323242 C128.630332,21.9829094 128.646934,21.855632 128.646934,21.7504883 C128.646934,21.6453445 128.658001,21.576172 128.680137,21.5429687 C128.702272,21.5097655 128.801881,21.5374345 128.978965,21.6259766 C129.20032,21.9137384 129.275027,22.2208643 129.203086,22.5473633 C129.131146,22.8738623 128.970666,23.1616198 128.721641,23.4106445 C128.472616,23.6596692 128.159957,23.8367508 127.783653,23.9418945 C127.407349,24.0470383 127.02275,24.0221362 126.629844,23.8671875 C126.236938,23.7122388 125.863407,23.3968123 125.509238,22.9208984 C125.15507,22.4449846 124.872846,21.7532597 124.662559,20.8457031 C124.596152,21.0338551 124.493777,21.2662747 124.35543,21.5429687 C124.217083,21.8196628 124.053836,22.0963528 123.865684,22.3730469 C123.677532,22.649741 123.464481,22.9098295 123.226524,23.1533203 C122.988567,23.3968111 122.742313,23.5794265 122.487754,23.7011719 C122.233196,23.8229173 121.97034,23.8699546 121.69918,23.8422852 C121.42802,23.8146157 121.15963,23.6624363 120.894004,23.3857422 Z M121.043418,22.3398437 C121.23157,22.7382832 121.452922,22.9541014 121.707481,22.9873047 C121.962039,23.020508 122.222128,22.9208996 122.487754,22.6884766 C122.75338,22.4560535 123.016236,22.1184918 123.276328,21.6757812 C123.536421,21.2330707 123.757773,20.7322619 123.940391,20.1733398 C124.123009,19.6144178 124.261354,19.0278351 124.35543,18.4135742 C124.449506,17.7993133 124.466107,17.2099638 124.405235,16.6455078 C124.344362,16.0810519 124.197716,15.5664086 123.965293,15.1015625 C123.73287,14.6367164 123.378707,14.2714857 122.902793,14.0058594 C122.891725,13.9947916 122.872357,13.9892578 122.844688,13.9892578 L122.769981,13.9892578 C122.42688,14.1442065 122.128055,14.4098288 121.873496,14.7861328 C121.618938,15.1624368 121.400353,15.6051407 121.217735,16.1142578 C121.035116,16.6233749 120.894005,17.171221 120.794395,17.7578125 C120.694785,18.344404 120.639447,18.9199191 120.628379,19.484375 C120.617311,20.0488309 120.64498,20.5828425 120.711387,21.0864258 C120.777794,21.590009 120.888469,22.0078108 121.043418,22.3398437 Z M130.733028,23.7509766 C130.688757,23.5738923 130.655554,23.3304052 130.633418,23.0205078 C130.611283,22.7106104 130.600215,22.364748 130.600215,21.9829102 C130.600215,21.6010723 130.602982,21.1998719 130.608516,20.7792969 C130.61405,20.3587219 130.62235,19.9492207 130.633418,19.5507812 C130.644486,19.1523418 130.647253,18.7815772 130.641719,18.4384766 C130.636185,18.0953759 130.622351,17.8131521 130.600215,17.5917969 C130.589147,17.4257804 130.575313,17.1795264 130.558711,16.8530273 C130.54211,16.5265283 130.522741,16.1585307 130.500606,15.7490234 C130.47847,15.3395162 130.453568,14.9078799 130.425899,14.4541016 C130.398229,14.0003233 130.378861,13.56592 130.367793,13.1508789 C130.356725,12.7358378 130.351192,12.3540056 130.351192,12.0053711 C130.351192,11.6567365 130.362259,11.3883473 130.384395,11.2001953 C130.550411,11.0563144 130.685989,11.0922841 130.791133,11.3081055 C130.896277,11.5239269 130.976517,11.8338196 131.031856,12.237793 C131.087195,12.6417663 131.123164,13.0983047 131.139766,13.6074219 C131.156368,14.116539 131.164668,14.5979795 131.164668,15.0517578 C131.164668,15.5055361 131.159134,15.8873682 131.148067,16.1972656 C131.136999,16.507163 131.131465,16.6676432 131.131465,16.6787109 C131.186804,17.7190807 131.222774,18.7456004 131.239375,19.7583008 C131.255977,20.7710012 131.308548,21.791987 131.39709,22.8212891 C131.507768,23.0315766 131.565873,23.2556954 131.571406,23.4936523 C131.57694,23.7316093 131.543738,23.9225253 131.471797,24.0664062 C131.399857,24.2102872 131.297481,24.271159 131.164668,24.2490234 C131.031855,24.2268879 130.887976,24.0608739 130.733028,23.7509766 Z" id="Play-Testimonial" fill="#FFFFFF"></path>
                        <g id="Group-44" transform="translate(148.775714, 13.184257) rotate(-119.000000) translate(-148.775714, -13.184257) translate(140.775714, 1.184257)" stroke-linecap="round" stroke-width="1.5">
                            <path d="M6.97736747,0 C9.08841681,7.72955429 9.28253535,15.008329 7.55972309,21.8363243" id="Path-3" transform="translate(7.849177, 10.918162) scale(-1, 1) translate(-7.849177, -10.918162) "></path>
                            <path d="M6.28948653,11.8760237 L4.82460186,19.6686804 C4.74975265,20.0668512 4.92254607,20.4708388 5.26217905,20.6917274 L11.6509414,24.8468148" id="Path-4" transform="translate(8.229143, 18.361419) scale(-1, 1) rotate(-71.000000) translate(-8.229143, -18.361419) "></path>
                        </g>
                    </g>
                </g>
            </g>
        </g>
    </g>
</svg>