<?xml version="1.0" encoding="UTF-8"?>
<svg width="123px" height="106px" viewBox="0 0 123 106" version="1.1" xmlns="http://www.w3.org/2000/svg" xmlns:xlink="http://www.w3.org/1999/xlink">
    <!-- Generator: Sketch 51.2 (57519) - http://www.bohemiancoding.com/sketch -->
    <title>”</title>
    <desc>Created with Sketch.</desc>
    <defs></defs>
    <g id="Page-1" stroke="none" stroke-width="1" fill="none" fill-rule="evenodd" opacity="0.049999997">
        <g id="superfood" transform="translate(-950.000000, -3273.000000)" fill="#000000">
            <g id="Group-28" transform="translate(249.000000, 3021.000000)">
                <path d="M701,252 L757.507353,252 L757.507353,295.517157 C757.507353,311.538479 754.173236,324.203793 747.504902,333.51348 C740.836568,342.823167 729.44861,350.985259 713.340686,358 L701,334.877451 C711.045802,330.200957 717.952187,325.546183 721.719363,320.91299 C725.486538,316.279797 727.586599,310.802319 728.019608,304.480392 L701,304.480392 L701,252 Z M766.860294,252 L823.367647,252 L823.367647,295.517157 C823.367647,311.538479 820.03353,324.203793 813.365196,333.51348 C806.696862,342.823167 795.308904,350.985259 779.20098,358 L766.860294,334.877451 C776.906096,330.200957 783.812481,325.546183 787.579657,320.91299 C791.346833,316.279797 793.446893,310.802319 793.879902,304.480392 L766.860294,304.480392 L766.860294,252 Z" id="”"></path>
            </g>
        </g>
    </g>
</svg>