<?xml version="1.0" encoding="UTF-8"?>
<svg width="21px" height="15px" viewBox="0 0 21 15" version="1.1" xmlns="http://www.w3.org/2000/svg" xmlns:xlink="http://www.w3.org/1999/xlink">
    <!-- Generator: Sketch 51.2 (57519) - http://www.bohemiancoding.com/sketch -->
    <title>usa</title>
    <desc>Created with Sketch.</desc>
    <defs></defs>
    <g id="Page-1" stroke="none" stroke-width="1" fill="none" fill-rule="evenodd">
        <g id="superfood" transform="translate(-1304.000000, -15.000000)">
            <g id="nav">
                <g id="Group-3" transform="translate(181.000000, 7.000000)">
                    <g id="USA" transform="translate(1105.000000, 8.000000)">
                        <g id="usa" transform="translate(18.000000, 0.000000)">
                            <path d="M8,1 L1,1 L1,6 L8,6 L8,1 Z M9,1 L9,6 L9,7 L0,7 L0,6 L0,1 L0,0 L9,0 L9,1 Z M7,2 L8,2 L8,3 L7,3 L7,2 Z M6,1 L7,1 L7,2 L6,2 L6,1 Z M4,1 L5,1 L5,2 L4,2 L4,1 Z M2,1 L3,1 L3,2 L2,2 L2,1 Z M1,2 L2,2 L2,3 L1,3 L1,2 Z M1,4 L2,4 L2,5 L1,5 L1,4 Z M2,5 L3,5 L3,6 L2,6 L2,5 Z M4,3 L5,3 L5,4 L4,4 L4,3 Z M5,2 L6,2 L6,3 L5,3 L5,2 Z M5,4 L6,4 L6,5 L5,5 L5,4 Z M6,3 L7,3 L7,4 L6,4 L6,3 Z M7,4 L8,4 L8,5 L7,5 L7,4 Z M6,5 L7,5 L7,6 L6,6 L6,5 Z M3,4 L4,4 L4,5 L3,5 L3,4 Z M3,2 L4,2 L4,3 L3,3 L3,2 Z M2,3 L3,3 L3,4 L2,4 L2,3 Z M4,5 L5,5 L5,6 L4,6 L4,5 Z" id="Combined-Shape" fill="#434279"></path>
                            <rect id="Rectangle-13" fill="#BD3002" x="0" y="14" width="21" height="1"></rect>
                            <rect id="Rectangle-13" fill="#BD3002" x="0" y="12" width="21" height="1"></rect>
                            <rect id="Rectangle-13" fill="#BD3002" x="0" y="10" width="21" height="1"></rect>
                            <rect id="Rectangle-13" fill="#BD3002" x="0" y="8" width="21" height="1"></rect>
                            <rect id="Path" fill="#BD3002" x="9" y="6" width="12" height="1"></rect>
                            <rect id="Path" fill="#BD3002" x="9" y="4" width="12" height="1"></rect>
                            <rect id="Path" fill="#BD3002" x="9" y="2" width="12" height="1"></rect>
                            <rect id="Path" fill="#BD3002" x="9" y="0" width="12" height="1"></rect>
                        </g>
                    </g>
                </g>
            </g>
        </g>
    </g>
</svg>