<?xml version="1.0" encoding="UTF-8"?>
<svg width="177px" height="23px" viewBox="0 0 177 23" version="1.1" xmlns="http://www.w3.org/2000/svg" xmlns:xlink="http://www.w3.org/1999/xlink">
    <!-- Generator: Sketch 51.2 (57519) - http://www.bohemiancoding.com/sketch -->
    <title>watch  video</title>
    <desc>Created with Sketch.</desc>
    <defs></defs>
    <g id="Page-1" stroke="none" stroke-width="1" fill="none" fill-rule="evenodd">
        <g id="superfood" transform="translate(-560.000000, -639.000000)">
            <g id="Group-3" transform="translate(560.000000, 595.000000)">
                <g id="Group-35">
                    <g id="watch--video" transform="translate(0.000000, 41.000000)">
                        <path d="M11.2708728,24.859375 C10.6732136,24.6015612 10.1429454,24.2294946 9.6800525,23.7431641 C9.21715956,23.2568335 8.80700741,22.7207061 8.44958375,22.1347656 C8.09216009,21.5488252 7.78161632,20.9365266 7.51794312,20.2978516 C7.25426993,19.6591765 7.02282693,19.0527372 6.82360719,18.4785156 L6.70056031,18.3554687 C6.65368508,18.3789064 6.56872499,18.5166003 6.4456775,18.7685547 C6.32263001,19.0205091 6.17321744,19.3339825 5.99743531,19.7089844 C5.82165318,20.0839862 5.61950677,20.5029274 5.39099,20.9658203 C5.16247323,21.4287133 4.92224126,21.8798806 4.67028687,22.3193359 C4.41833249,22.7587913 4.15759291,23.1718731 3.88806031,23.5585937 C3.61852771,23.9453144 3.34899916,24.2499989 3.07946656,24.4726562 C2.80993396,24.6953136 2.54626473,24.8154296 2.28845094,24.8330078 C2.03063715,24.850586 1.79040518,24.7187514 1.56774781,24.4375 C1.5443102,24.4140624 1.51501361,24.3671879 1.47985719,24.296875 C1.44470076,24.2265621 1.42712281,24.1855469 1.42712281,24.1738281 L0.899779062,16.8261719 C0.84118502,16.6621086 0.79138083,16.4775401 0.750365,16.2724609 C0.70934917,16.0673818 0.759153359,15.8886726 0.899779062,15.7363281 C1.14587404,15.6074212 1.34802046,15.583984 1.50622437,15.6660156 C1.66442829,15.7480473 1.78454428,15.9062488 1.86657594,16.140625 C1.93688879,16.3632824 1.97204469,16.6503889 1.97204469,17.0019531 C1.97204469,17.3535174 1.96325571,17.7138653 1.9456775,18.0830078 C1.92809929,18.4521503 1.90466202,18.8095686 1.875365,19.1552734 C1.84606798,19.5009783 1.84313832,19.7851551 1.86657594,20.0078125 C1.87829475,20.1367194 1.8958727,20.3505844 1.91931031,20.6494141 C1.94274793,20.9482437 1.96911485,21.2675764 1.99841187,21.6074219 C2.0277089,21.9472673 2.05407582,22.2695297 2.07751344,22.5742187 C2.10095105,22.8789078 2.118529,23.0898432 2.13024781,23.2070312 C2.13024781,23.2421877 2.14782576,23.3124995 2.18298219,23.4179687 C2.21813861,23.523438 2.2474352,23.5878905 2.27087281,23.6113281 C2.28259162,23.6347657 2.30895854,23.6464844 2.34997437,23.6464844 C2.39099021,23.6464844 2.41149781,23.6347657 2.41149781,23.6113281 C2.90368777,23.189451 3.32848821,22.7119167 3.68591187,22.1787109 C4.04333554,21.6455051 4.36559794,21.0859404 4.65270875,20.5 C4.93981956,19.9140596 5.21227777,19.319339 5.47009156,18.7158203 C5.72790535,18.1123017 6.00329322,17.5292997 6.29626344,16.9667969 C6.42517033,16.7558583 6.58630153,16.6767575 6.77966187,16.7294922 C6.97302222,16.7822268 7.13415342,16.9082021 7.26306031,17.1074219 C7.53259291,17.5644554 7.73473933,18.0332007 7.86950562,18.5136719 C8.00427192,18.994143 8.14196586,19.4775366 8.28259156,19.9638672 C8.42321727,20.4501977 8.59899676,20.9335913 8.80993531,21.4140625 C9.02087387,21.8945337 9.33141764,22.3515603 9.74157594,22.7851562 C10.3626728,23.4531283 10.9310265,23.8603508 11.4466541,24.0068359 C11.9622816,24.153321 12.4251676,24.1210948 12.8353259,23.9101562 C13.2454842,23.6992177 13.6029025,23.3417994 13.9075916,22.8378906 C14.2122806,22.3339819 14.4613015,21.7626985 14.6546619,21.1240234 C14.8480222,20.4853484 14.9798568,19.8173863 15.0501697,19.1201172 C15.1204825,18.4228481 15.1322012,17.772464 15.0853259,17.1689453 C15.0384507,16.5654267 14.9271237,16.0439475 14.7513416,15.6044922 C14.5755594,15.1650369 14.3353275,14.88086 14.0306384,14.7519531 C14.0072008,14.7285155 13.9691153,14.7167969 13.9163806,14.7167969 C13.863646,14.7167969 13.8372791,14.7285155 13.8372791,14.7519531 L13.8372791,15.4375 C13.8372791,15.4609376 13.8050528,15.4638673 13.7405994,15.4462891 C13.6761459,15.4287108 13.6058341,15.4023439 13.5296619,15.3671875 C13.4534896,15.3320311 13.3831778,15.2851565 13.3187244,15.2265625 C13.2542709,15.1679685 13.2161854,15.103516 13.2044666,15.0332031 L13.2044666,13.6445312 C13.7083753,13.5156244 14.1419647,13.6123031 14.5052478,13.9345703 C14.8685309,14.2568375 15.1614967,14.7138642 15.3841541,15.3056641 C15.6068114,15.8974639 15.7532943,16.5859336 15.8236072,17.3710937 C15.89392,18.1562539 15.8909904,18.9501913 15.8148181,19.7529297 C15.7386459,20.5556681 15.5863036,21.3290978 15.3577869,22.0732422 C15.1292701,22.8173865 14.8275153,23.4443334 14.4525134,23.9541016 C14.0775116,24.4638697 13.6234145,24.8154287 13.0902087,25.0087891 C12.557003,25.2021494 11.9505637,25.1523452 11.2708728,24.859375 Z M18.5949127,24.3496094 C18.3605365,24.1152332 18.1730384,23.7578149 18.0324127,23.2773437 C17.891787,22.7968726 17.7951083,22.2519562 17.7423736,21.6425781 C17.689639,21.0332001 17.68085,20.3857456 17.7160064,19.7001953 C17.7511629,19.014645 17.8302636,18.3466829 17.9533111,17.6962891 C18.0763586,17.0458952 18.2404195,16.4394559 18.4454986,15.8769531 C18.6505778,15.3144503 18.9025284,14.8486347 19.201358,14.4794922 C19.5001876,14.1103497 19.840028,13.8701177 20.2208892,13.7587891 C20.6017505,13.6474604 21.026551,13.7148425 21.4953033,13.9609375 C21.6593666,14.054688 21.8322165,14.2128895 22.013858,14.4355469 C22.1954995,14.6582042 22.3683494,14.9072252 22.5324127,15.1826172 C22.696476,15.4580092 22.8400293,15.7333971 22.9630767,16.0087891 C23.0861242,16.2841811 23.1769436,16.5156241 23.2355377,16.703125 C23.2472565,16.761719 23.2501862,16.9404282 23.2443267,17.2392578 C23.2384673,17.5380874 23.2296784,17.8984354 23.2179596,18.3203125 C23.2062408,18.7421896 23.2091704,19.2080053 23.2267486,19.7177734 C23.2443268,20.2275416 23.2853421,20.7255835 23.3497955,21.2119141 C23.4142489,21.6982446 23.516787,22.149412 23.6574127,22.5654297 C23.7980384,22.9814474 23.9855365,23.3095691 24.2199127,23.5498047 C24.4542889,23.7900403 24.7501843,23.9189452 25.107608,23.9365234 C25.4650317,23.9541017 25.9015507,23.8105484 26.4171783,23.5058594 C26.6046792,23.3417961 26.7160063,23.1806649 26.7511627,23.0224609 C26.7863191,22.864257 26.8038971,22.7294927 26.8038971,22.6181641 C26.8038971,22.5068354 26.8156157,22.4335939 26.8390533,22.3984375 C26.8624909,22.3632811 26.9679586,22.3925777 27.1554596,22.4863281 C27.3898357,22.7910171 27.4689365,23.1162092 27.3927642,23.4619141 C27.316592,23.8076189 27.1466718,24.1123034 26.8829986,24.3759766 C26.6193254,24.6396498 26.2882741,24.8271479 25.8898346,24.9384766 C25.4913951,25.0498052 25.0841726,25.0234383 24.6681549,24.859375 C24.2521372,24.6953117 23.8566333,24.3613306 23.4816314,23.8574219 C23.1066296,23.3535131 22.8078044,22.6210986 22.5851471,21.6601562 C22.5148342,21.859376 22.4064369,22.1054673 22.2599517,22.3984375 C22.1134666,22.6914077 21.9406168,22.9843735 21.7413971,23.2773437 C21.5421773,23.570314 21.3165936,23.8457018 21.0646392,24.1035156 C20.8126849,24.3613294 20.5519453,24.5546869 20.2824127,24.6835937 C20.0128801,24.8125006 19.7345626,24.8623048 19.4474517,24.8330078 C19.1603409,24.8037108 18.8761641,24.6425796 18.5949127,24.3496094 Z M18.7531158,23.2421875 C18.9523356,23.6640646 19.1867082,23.8925779 19.4562408,23.9277344 C19.7257734,23.9628908 20.0011613,23.8574231 20.2824127,23.6113281 C20.5636641,23.3652331 20.8419816,23.0078148 21.1173736,22.5390625 C21.3927656,22.0703102 21.6271383,21.540042 21.8204986,20.9482422 C22.013859,20.3564424 22.1603419,19.7353548 22.2599517,19.0849609 C22.3595616,18.4345671 22.3771396,17.8105499 22.3126861,17.2128906 C22.2482327,16.6152314 22.0929608,16.070315 21.8468658,15.578125 C21.6007708,15.085935 21.2257746,14.6992202 20.7218658,14.4179687 C20.710147,14.4062499 20.6896394,14.4003906 20.6603424,14.4003906 L20.5812408,14.4003906 C20.2179577,14.5644539 19.9015547,14.8457011 19.6320221,15.2441406 C19.3624895,15.6425801 19.1310465,16.1113254 18.9376861,16.6503906 C18.7443258,17.1894558 18.5949132,17.7695281 18.4894439,18.390625 C18.3839747,19.0117219 18.3253815,19.6210908 18.3136627,20.21875 C18.3019439,20.8164092 18.3312405,21.3818333 18.4015533,21.9150391 C18.4718662,22.4482449 18.5890525,22.8906232 18.7531158,23.2421875 Z M30.6826244,24.859375 C30.6826244,24.6367176 30.6914134,24.3378925 30.7089916,23.9628906 C30.7265698,23.5878887 30.7412181,23.1777366 30.7529369,22.7324219 C30.7646557,22.2871071 30.7705151,21.8300805 30.7705151,21.3613281 C30.7705151,20.8925758 30.7587964,20.4531271 30.7353588,20.0429687 C30.7119212,19.6328104 30.6738356,19.2753921 30.621101,18.9707031 C30.5683664,18.6660141 30.4951249,18.460938 30.4013744,18.3554687 C29.6630895,18.4140628 29.1005951,18.4082035 28.7138744,18.3378906 C28.3271538,18.2675778 28.1308667,18.1738287 28.1250072,18.0566406 C28.1191478,17.9394525 28.3154349,17.8134772 28.7138744,17.6787109 C29.1123139,17.5439446 29.7275422,17.4472659 30.5595776,17.3886719 C30.5595776,17.2480462 30.5625072,16.9990252 30.5683666,16.6416016 C30.574226,16.2841779 30.5771557,15.906252 30.5771557,15.5078125 C30.5771557,15.109373 30.574226,14.7343768 30.5683666,14.3828125 C30.5625072,14.0312482 30.5595776,13.785157 30.5595776,13.6445312 C30.5478588,13.5624996 30.5302808,13.4511726 30.5068432,13.3105469 C30.4834056,13.1699212 30.4599683,13.0205086 30.4365307,12.8623047 C30.4130931,12.7041008 30.3955151,12.5458992 30.3837963,12.3876953 C30.3720775,12.2294914 30.3779368,12.0976568 30.4013744,11.9921875 C30.4248121,11.8515618 30.4863349,11.7548831 30.5859447,11.7021484 C30.6855546,11.6494138 30.7880927,11.6259765 30.8935619,11.6318359 C30.9990312,11.6376953 31.0957099,11.6728512 31.183601,11.7373047 C31.2714921,11.8017581 31.3154369,11.8867182 31.3154369,11.9921875 L31.3154369,17.2480469 C31.3154369,17.365235 31.4619198,17.4208985 31.7548901,17.4150391 C32.0478603,17.4091797 32.4052786,17.3828127 32.8271557,17.3359375 C33.2490328,17.2890623 33.6914112,17.2392581 34.1543041,17.1865234 C34.6171971,17.1337888 35.0156306,17.1191405 35.3496166,17.1425781 C35.6836027,17.1660157 35.9091864,17.2451165 36.0263744,17.3798828 C36.1435625,17.5146491 36.0732507,17.7460921 35.8154369,18.0742187 C35.7919993,18.0976564 35.7451248,18.1269529 35.6748119,18.1621094 C35.6044991,18.1972658 35.5576246,18.2148437 35.5341869,18.2148437 C34.9013713,18.1914061 34.2334092,18.1855468 33.5302807,18.1972656 C32.8271522,18.2089844 32.1591901,18.2617183 31.5263744,18.3554687 C31.3154359,18.3906252 31.2011792,18.5869123 31.183601,18.9443359 C31.1660228,19.3017596 31.1953194,19.7382787 31.2714916,20.2539062 C31.3476639,20.7695338 31.4355536,21.3173799 31.5351635,21.8974609 C31.6347734,22.477542 31.6962962,23.0078101 31.7197338,23.4882812 C31.7431714,23.9687524 31.6933672,24.3583969 31.5703197,24.6572266 C31.4472723,24.9560562 31.1982513,25.0703129 30.8232494,25 C30.7998118,25 30.7705152,24.9824221 30.7353588,24.9472656 C30.7002024,24.9121092 30.6826244,24.8828126 30.6826244,24.859375 Z M39.7468987,24.7363281 C39.4422097,24.501952 39.1580328,24.1445337 38.8943596,23.6640625 C38.6306864,23.1835913 38.4109621,22.6474639 38.2351799,22.0556641 C38.0593978,21.4638642 37.9363522,20.8457063 37.8660393,20.2011719 C37.7957265,19.5566374 37.7898671,18.9501982 37.8484612,18.3818359 C37.9070552,17.8134737 38.0447492,17.3154318 38.2615471,16.8876953 C38.4783451,16.4599588 38.7859592,16.1640633 39.1843987,16 C39.5125253,15.8710931 39.7967022,15.89746 40.0369377,16.0791016 C40.2771733,16.2607431 40.4734604,16.5009751 40.6258049,16.7998047 C40.7781494,17.0986343 40.8806875,17.4062484 40.9334221,17.7226562 C40.9861568,18.0390641 40.9832271,18.2705071 40.9246331,18.4169922 C40.866039,18.5634773 40.7517823,18.5751959 40.5818596,18.4521484 C40.4119369,18.3291009 40.1804939,17.9746123 39.8875237,17.3886719 C39.7586168,17.1191393 39.6209229,17.0283199 39.4744377,17.1162109 C39.3279526,17.204102 39.1931884,17.4121077 39.0701409,17.7402344 C38.9470934,18.068361 38.847485,18.4814428 38.7713127,18.9794922 C38.6951405,19.4775416 38.6541253,19.9960911 38.6482659,20.5351562 C38.6424065,21.0742214 38.6834217,21.5986303 38.7713127,22.1083984 C38.8592038,22.6181666 39.0086164,23.051756 39.2195549,23.4091797 C39.4304935,23.7666033 39.7146703,24.0126946 40.072094,24.1474609 C40.4295177,24.2822272 40.8718961,24.2441417 41.3992424,24.0332031 C41.5047117,23.9863279 41.6746319,23.839845 41.9090081,23.59375 C42.1433842,23.347655 42.3982645,23.0722671 42.6736565,22.7675781 C42.9490485,22.4628891 43.2215067,22.1699233 43.4910393,21.8886719 C43.7605719,21.6074205 43.9861556,21.414063 44.1677971,21.3085937 C44.3494387,21.2031245 44.4636953,21.2177728 44.5105706,21.3525391 C44.5574458,21.4873054 44.4929933,21.8242161 44.3172112,22.3632812 C44.1883043,22.7734396 43.9568613,23.1865214 43.6228752,23.6025391 C43.2888892,24.0185568 42.9080336,24.3642564 42.4802971,24.6396484 C42.0525606,24.9150404 41.5984636,25.0791013 41.1179924,25.1318359 C40.6375213,25.1845706 40.1804946,25.052736 39.7468987,24.7363281 Z M53.3639073,24.3144531 C53.4342202,22.1347547 53.3434008,20.3798895 53.0914464,19.0498047 C52.839492,17.7197199 52.4996516,16.767581 52.0719151,16.1933594 C51.6441786,15.6191378 51.1725036,15.3964837 50.6568761,15.5253906 C50.1412485,15.6542975 49.6519956,16.079098 49.1891026,16.7998047 C48.7262097,17.5205114 48.3277762,18.5078062 47.9937901,19.7617187 C47.6598041,21.0156313 47.4693763,22.4863197 47.4225011,24.1738281 C47.3756258,24.3144538 47.305314,24.381836 47.2115636,24.3759766 C47.1178131,24.3701172 47.024064,24.3261723 46.9303136,24.2441406 C46.8365631,24.162109 46.7545327,24.0595709 46.6842198,23.9365234 C46.613907,23.8134759 46.5787511,23.7050786 46.5787511,23.6113281 C46.5787511,23.5644529 46.58754,23.4531259 46.6051182,23.2773437 C46.6226965,23.1015616 46.6402744,22.9140635 46.6578526,22.7148437 C46.6754308,22.515624 46.6900791,22.3281259 46.7017979,22.1523437 C46.7135167,21.9765616 46.7193761,21.8652346 46.7193761,21.8183594 C46.7193761,21.7128901 46.7223057,21.5458996 46.7281651,21.3173828 C46.7340245,21.088866 46.7369542,20.8281265 46.7369542,20.5351562 L46.7369542,18.6982422 C46.7369542,18.4111314 46.7340245,18.1503918 46.7281651,17.9160156 C46.7223057,17.6816395 46.7193761,17.50586 46.7193761,17.3886719 C46.7193761,17.3300778 46.7135167,17.2041025 46.7017979,17.0107422 C46.6900791,16.8173818 46.6783605,16.6123058 46.6666417,16.3955078 C46.6549229,16.1787099 46.6402746,15.9677745 46.6226964,15.7626953 C46.6051182,15.5576162 46.5904699,15.4082036 46.5787511,15.3144531 C46.5787511,15.2558591 46.5641028,15.1181651 46.5348057,14.9013672 C46.5055087,14.6845692 46.4762121,14.4501966 46.4469151,14.1982422 C46.4176181,13.9462878 46.3912512,13.7119151 46.3678136,13.4951172 C46.3443759,13.2783192 46.326798,13.1406253 46.3150792,13.0820312 C46.2799228,12.7070294 46.3267973,12.487305 46.4557042,12.4228516 C46.5846111,12.3583981 46.7662499,12.4902327 47.0006261,12.8183594 C47.0943765,13.7793017 47.158829,14.7255813 47.1939854,15.6572266 C47.2291419,16.5888718 47.305313,17.5292921 47.4225011,18.4785156 C47.5279703,18.1269514 47.659805,17.7548848 47.8180089,17.3623047 C47.9762128,16.9697246 48.1637109,16.597658 48.3805089,16.2460937 C48.5973068,15.8945295 48.8551168,15.5839857 49.1539464,15.3144531 C49.452776,15.0449205 49.795546,14.8574224 50.1822667,14.7519531 C50.6978943,14.5996086 51.1432023,14.5820307 51.5182042,14.6992187 C51.8932061,14.8164068 52.2125388,15.0244126 52.476212,15.3232422 C52.7398852,15.6220718 52.9537502,15.9941384 53.1178136,16.4394531 C53.2818769,16.8847679 53.4166412,17.3652318 53.5221104,17.8808594 C53.6275797,18.396487 53.7037508,18.9267551 53.7506261,19.4716797 C53.7975013,20.0166043 53.8385165,20.5351538 53.8736729,21.0273437 C53.9088294,21.5195337 53.9381259,21.9677714 53.9615636,22.3720703 C53.9850012,22.7763692 54.0201571,23.1015613 54.0670323,23.3476562 C54.1021887,23.5351572 54.1900785,23.6435545 54.3307042,23.6728516 C54.4713299,23.7021486 54.6002349,23.7314452 54.7174229,23.7607422 C54.834611,23.7900392 54.9019932,23.8544917 54.9195714,23.9541016 C54.9371496,24.0537114 54.8404709,24.2617172 54.6295323,24.578125 C54.5475007,24.6953131 54.433244,24.7832028 54.2867589,24.8417969 C54.1402738,24.9003909 53.9937909,24.9267578 53.8473057,24.9208984 C53.7008206,24.915039 53.577775,24.8623052 53.4781651,24.7626953 C53.3785553,24.6630854 53.3404697,24.5136729 53.3639073,24.3144531 Z M69.3655027,24.859375 C69.0490949,24.7890621 68.7473401,24.6718758 68.4602292,24.5078125 C68.1731184,24.3437492 67.9153085,24.1445324 67.6867917,23.9101562 C67.458275,23.6757801 67.2619879,23.4150405 67.0979246,23.1279297 C66.9338612,22.8408189 66.8166749,22.5390641 66.7463621,22.2226562 C66.7112056,21.4726525 66.7287836,20.7490269 66.7990964,20.0517578 C66.8694093,19.3544887 66.983666,18.6689487 67.1418699,17.9951172 C67.3000738,17.3212857 67.4992905,16.650394 67.7395261,15.9824219 C67.9797617,15.3144498 68.2463606,14.6289098 68.5393308,13.9257812 C68.5393308,13.9023436 68.5569088,13.8730471 68.5920652,13.8378906 C68.6272216,13.8027342 68.6565182,13.7851562 68.6799558,13.7851562 C68.7385499,13.7734374 68.8557362,13.7675781 69.0315183,13.7675781 C69.2073004,13.7675781 69.3186275,13.7734374 69.3655027,13.7851562 C69.4240967,14.230471 69.3655036,14.7314425 69.1897214,15.2880859 C69.0139393,15.8447293 68.8000743,16.421872 68.5481199,17.0195312 C68.2961655,17.6171905 68.0471445,18.2294891 67.8010496,18.8564453 C67.5549546,19.4834016 67.396753,20.0839815 67.3264402,20.6582031 C67.2561273,21.2324247 67.3147205,21.7744115 67.5022214,22.2841797 C67.6897224,22.7939479 68.0822966,23.2363262 68.6799558,23.6113281 C69.0315201,23.8339855 69.4240943,23.9804684 69.8576902,24.0507812 C70.2912861,24.1210941 70.7278052,24.1269534 71.1672605,24.0683594 C71.6067158,24.0097653 72.0315163,23.892579 72.4416746,23.7167969 C72.8518329,23.5410147 73.2151105,23.3183607 73.5315183,23.0488281 C74.3987101,22.3105432 75.0578832,21.5517617 75.5090574,20.7724609 C75.9602315,19.9931602 76.247338,19.2226601 76.3703855,18.4609375 C76.493433,17.6992149 76.4817144,16.9726597 76.3352292,16.28125 C76.1887441,15.5898403 75.9455825,14.9658231 75.6057371,14.4091797 C75.2658916,13.8525363 74.8615988,13.383791 74.3928464,13.0029297 C73.9240941,12.6220684 73.4289819,12.3701178 72.9074949,12.2470703 C72.3860079,12.1240228 71.8645287,12.1445304 71.3430417,12.3085937 C70.8215548,12.4726571 70.3498798,12.8242161 69.9280027,13.3632812 C69.7522206,13.4570317 69.6496825,13.4775393 69.6203855,13.4248047 C69.5910885,13.37207 69.6145257,13.2812506 69.690698,13.1523437 C69.7668703,13.0234369 69.8840566,12.8710946 70.0422605,12.6953125 C70.2004644,12.5195304 70.3762439,12.3437509 70.5696042,12.1679687 C70.7629646,11.9921866 70.9592517,11.8369147 71.1584714,11.7021484 C71.3576912,11.5673821 71.5451893,11.4765627 71.7209714,11.4296875 C71.9201912,11.3828123 72.1428452,11.3740233 72.3889402,11.4033203 C72.6350352,11.4326173 72.8781968,11.4882808 73.1184324,11.5703125 C73.358668,11.6523442 73.5901109,11.7519525 73.8127683,11.8691406 C74.0354257,11.9863287 74.2170645,12.1152337 74.3576902,12.2558594 C74.5803476,12.4667979 74.8147202,12.6865223 75.0608152,12.9150391 C75.3069102,13.1435558 75.5500718,13.3837878 75.7903074,13.6357422 C76.030543,13.8876966 76.253197,14.1542955 76.4582761,14.4355469 C76.6633553,14.7167983 76.8362051,15.0097641 76.9768308,15.3144531 C77.3283951,16.0878945 77.5041746,16.8876912 77.5041746,17.7138672 C77.5041746,18.5400432 77.3606213,19.3398399 77.0735105,20.1132812 C76.7863997,20.8867226 76.3821069,21.6015592 75.8606199,22.2578125 C75.3391329,22.9140658 74.7356233,23.4677712 74.050073,23.9189453 C73.3645227,24.3701194 72.6203895,24.6865225 71.8176511,24.8681641 C71.0149127,25.0498056 70.1975381,25.0468759 69.3655027,24.859375 Z M88.1153238,24.859375 C87.8340724,24.7773433 87.5762625,24.6279308 87.3418863,24.4111328 C87.1075101,24.1943349 86.8965747,23.9365249 86.7090738,23.6376953 C86.5215729,23.3388657 86.357512,23.0166033 86.2168863,22.6708984 C86.0762606,22.3251936 85.9502853,21.9794939 85.8389566,21.6337891 C85.7276279,21.2880842 85.6309492,20.9628921 85.5489176,20.6582031 C85.4668859,20.3535141 85.3965741,20.0898449 85.3379801,19.8671875 L85.1973551,19.8671875 C85.0567294,20.1718765 84.8428643,20.5380838 84.5557535,20.9658203 C84.2686427,21.3935568 83.9493099,21.8066386 83.5977457,22.2050781 C83.2461814,22.6035176 82.8741148,22.9492173 82.4815347,23.2421875 C82.0889547,23.5351577 81.7168881,23.7080075 81.3653238,23.7607422 C81.0137596,23.8134768 80.6973565,23.7080091 80.4161051,23.4443359 C80.1348537,23.1806627 79.9297776,22.6855505 79.8008707,21.9589844 C79.7422766,20.8456976 79.7012614,19.7382868 79.6778238,18.6367187 C79.6543862,17.5351507 79.6543862,16.4277399 79.6778238,15.3144531 C79.7129802,15.2675779 79.7745031,15.2089847 79.8623941,15.1386719 C79.9502852,15.068359 80.0411046,15.0214845 80.1348551,14.9980469 C80.2286055,14.9746093 80.3135656,14.9892575 80.3897379,15.0419922 C80.4659101,15.0947268 80.5039957,15.2265614 80.5039957,15.4375 L80.5039957,21.2558594 C80.5039957,21.3613287 80.518644,21.4843743 80.547941,21.625 C80.577238,21.7656257 80.6241126,21.9033196 80.688566,22.0380859 C80.7530194,22.1728522 80.8262609,22.2958979 80.9082926,22.4072266 C80.9903242,22.5185552 81.0840733,22.597656 81.1895426,22.6445312 C81.6114197,22.8203134 81.9922752,22.8173837 82.3321207,22.6357422 C82.6719661,22.4541007 82.9795802,22.1640645 83.2549722,21.765625 C83.5303643,21.3671855 83.7823149,20.8955105 84.0108316,20.3505859 C84.2393484,19.8056613 84.4473541,19.2695339 84.6348551,18.7421875 C84.822356,18.2148411 84.9952058,17.7255882 85.1534097,17.2744141 C85.3116137,16.8232399 85.4668856,16.4863292 85.6192301,16.2636719 C85.6426677,16.2753907 85.6690346,16.3017576 85.6983316,16.3427734 C85.7276286,16.3837893 85.7481363,16.4101562 85.7598551,16.421875 C85.7950115,16.4687502 85.8653233,16.5595696 85.9707926,16.6943359 C86.0762618,16.8291022 86.1407143,16.9199216 86.1641519,16.9667969 C86.1641519,17.1777354 86.1670816,17.4677716 86.172941,17.8369141 C86.1788004,18.2060565 86.199308,18.6103494 86.2344644,19.0498047 C86.2696209,19.48926 86.3223547,19.9462867 86.3926676,20.4208984 C86.4629804,20.8955102 86.5596591,21.3496072 86.6827066,21.7832031 C86.8057541,22.216799 86.9639557,22.6064436 87.157316,22.9521484 C87.3506763,23.2978533 87.585049,23.5615225 87.860441,23.7431641 C88.135833,23.9248056 88.4580954,24.006836 88.8272379,23.9892578 C89.1963803,23.9716796 89.6270401,23.8105484 90.1192301,23.5058594 C90.365325,23.3535149 90.511808,23.2128913 90.5586832,23.0839844 C90.6055584,22.9550775 90.6231364,22.8232429 90.6114176,22.6884766 C90.5996988,22.5537103 90.5909098,22.4160163 90.5850504,22.2753906 C90.579191,22.1347649 90.6582917,21.9648447 90.8223551,21.765625 C91.1153253,21.6718745 91.3379793,21.7070304 91.4903238,21.8710937 C91.6426683,22.0351571 91.7276284,22.2636704 91.7452066,22.5566406 C91.7627848,22.8496108 91.7041917,23.1689436 91.5694254,23.5146484 C91.4346591,23.8603533 91.2178644,24.1621081 90.9190347,24.4199219 C90.6202051,24.6777357 90.2393496,24.8623041 89.7764566,24.9736328 C89.3135637,25.0849615 88.7598583,25.0468759 88.1153238,24.859375 Z M97.9530356,24.5253906 C97.4842832,24.255858 97.1180759,23.9833998 96.8544027,23.7080078 C96.5907296,23.4326158 96.3417086,23.1630873 96.1073324,22.8994141 C95.8729563,22.6357409 95.6034277,22.3837903 95.2987387,22.1435547 C94.9940497,21.9033191 94.5721789,21.6894541 94.0331137,21.5019531 C93.951082,21.7363293 93.8866295,22.0117172 93.8397543,22.328125 C93.7928791,22.6445328 93.7547935,22.9638656 93.7254965,23.2861328 C93.6961995,23.6084 93.6727622,23.9130845 93.655184,24.2001953 C93.6376058,24.4873061 93.6170982,24.7070305 93.5936606,24.859375 C93.4413161,25.0468759 93.2948331,25.1289064 93.1542074,25.1054687 C93.0135817,25.0820311 92.8876064,25.0087897 92.7762777,24.8857422 C92.6649491,24.7626947 92.5712,24.6162118 92.4950277,24.4462891 C92.4188555,24.2763663 92.3749106,24.1445317 92.3631918,24.0507812 C92.6327244,23.4179656 92.8172929,22.7793001 92.9169027,22.1347656 C93.0165126,21.4902312 93.0633872,20.8281284 93.0575277,20.1484375 C93.0516683,19.4687466 93.0135828,18.7656286 92.9432699,18.0390625 C92.8729571,17.3124964 92.8143639,16.5507852 92.7674887,15.7539062 C92.8260827,15.6601558 92.9051835,15.5839847 93.0047934,15.5253906 C93.1044032,15.4667966 93.2128006,15.4609373 93.3299887,15.5078125 C93.4823332,15.3320304 93.68155,15.1357433 93.9276449,14.9189453 C94.1737399,14.7021474 94.4403388,14.5029306 94.7274496,14.3212891 C95.0145604,14.1396475 95.3133856,13.990235 95.623934,13.8730469 C95.9344824,13.7558588 96.2245186,13.7060546 96.4940512,13.7236328 C96.7635838,13.741211 97.0008861,13.8437491 97.2059652,14.03125 C97.4110444,14.2187509 97.560457,14.5234354 97.6542074,14.9453125 C97.7479579,15.5546905 97.73038,16.1230442 97.6014731,16.6503906 C97.4725662,17.177737 97.2645604,17.6787086 96.9774496,18.1533203 C96.6903388,18.6279321 96.3299909,19.0732401 95.8963949,19.4892578 C95.462799,19.9052755 94.9823351,20.3066387 94.4549887,20.6933594 C94.4198323,20.7636722 94.4344806,20.8310544 94.498934,20.8955078 C94.5633874,20.9599613 94.6454179,21.0185544 94.7450277,21.0712891 C94.8446376,21.1240237 94.9471757,21.1679686 95.0526449,21.203125 C95.1581142,21.2382814 95.2342853,21.2617187 95.2811606,21.2734375 C95.5155367,21.4375008 95.7733467,21.6572252 96.0545981,21.9326172 C96.3358495,22.2080092 96.6317449,22.4892564 96.9422934,22.7763672 C97.2528418,23.063478 97.5692449,23.3242176 97.8915121,23.5585937 C98.2137794,23.7929699 98.5331121,23.9423825 98.8495199,24.0068359 C99.1659278,24.0712894 99.4735419,24.0273445 99.7723715,23.875 C100.071201,23.7226555 100.355378,23.4003931 100.624911,22.9082031 L100.906161,22.9082031 C100.953036,23.2597674 100.897372,23.5849594 100.739168,23.8837891 C100.580964,24.1826187 100.35831,24.4140617 100.0712,24.578125 C99.7840888,24.7421883 99.4530374,24.8300781 99.0780356,24.8417969 C98.7030337,24.8535157 98.3280374,24.748048 97.9530356,24.5253906 Z M93.8924887,18.7421875 C93.9042075,18.7890627 93.9159261,18.8740228 93.9276449,18.9970703 C93.9393637,19.1201178 93.954012,19.2490228 93.9715902,19.3837891 C93.9891685,19.5185554 94.0038168,19.6445307 94.0155356,19.7617187 C94.0272544,19.8789068 94.0331137,19.9609373 94.0331137,20.0078125 C94.5370225,19.8085928 94.9764712,19.498049 95.3514731,19.0761719 C95.7264749,18.6542948 96.0311594,18.2001977 96.2655356,17.7138672 C96.4999117,17.2275366 96.6551836,16.7412134 96.7313559,16.2548828 C96.8075281,15.7685523 96.8045985,15.3671891 96.7225668,15.0507812 C96.6405352,14.7343734 96.4676853,14.5380863 96.2040121,14.4619141 C95.9403389,14.3857418 95.5858503,14.5058578 95.1405356,14.8222656 C94.7186585,15.1269546 94.4110443,15.4228501 94.217684,15.7099609 C94.0243237,15.9970717 93.8954187,16.2958969 93.8309652,16.6064453 C93.7665118,16.9169937 93.7518635,17.2451155 93.7870199,17.5908203 C93.8221764,17.9365252 93.8573323,18.3203104 93.8924887,18.7421875 Z M117.048381,24.3144531 C116.743692,23.646481 116.433148,22.9638707 116.11674,22.2666016 C115.800332,21.5693325 115.466351,20.8720738 115.114787,20.1748047 C114.763223,19.4775356 114.394086,18.7978549 114.007365,18.1357422 C113.620645,17.4736295 113.204633,16.8496123 112.759318,16.2636719 C112.724162,16.2167966 112.647991,16.1435552 112.530803,16.0439453 C112.413615,15.9443354 112.287639,15.8271491 112.152873,15.6923828 C112.018107,15.5576165 111.889202,15.4199226 111.766154,15.2792969 C111.643107,15.1386712 111.558147,15.0097662 111.511272,14.8925781 C111.394083,14.5878891 111.382365,14.3974613 111.476115,14.3212891 C111.569866,14.2451168 111.70463,14.2363278 111.880412,14.2949219 C112.056194,14.3535159 112.243692,14.4677726 112.442912,14.6376953 C112.642132,14.807618 112.794474,14.9863272 112.899943,15.1738281 C113.251508,15.8066438 113.600137,16.4804652 113.945842,17.1953125 C114.291547,17.9101598 114.643106,18.6220668 115.000529,19.3310547 C115.357953,20.0400426 115.72709,20.7285123 116.107951,21.3964844 C116.488813,22.0644565 116.896035,22.6679661 117.329631,23.2070312 L117.399943,23.1367187 C117.4351,23.1015623 117.452678,23.0722657 117.452678,23.0488281 C117.464397,23.0136717 117.487834,22.9521489 117.52299,22.8642578 C117.558147,22.7763667 117.590373,22.679688 117.61967,22.5742187 C117.648967,22.4687495 117.675334,22.3691411 117.698772,22.2753906 C117.722209,22.1816402 117.739787,22.1171877 117.751506,22.0820312 C117.774944,21.9531244 117.813029,21.7509779 117.865764,21.4755859 C117.918498,21.2001939 117.974162,20.8896502 118.032756,20.5439453 C118.09135,20.1982405 118.158732,19.8349628 118.234904,19.4541016 C118.311077,19.0732403 118.378459,18.7099627 118.437053,18.3642578 C118.495647,18.018553 118.55131,17.7080092 118.604045,17.4326172 C118.65678,17.1572252 118.694865,16.9550788 118.718303,16.8261719 C118.788616,16.6621086 118.83842,16.4892587 118.867717,16.3076172 C118.897014,16.1259757 118.923381,15.9472665 118.946818,15.7714844 C118.970256,15.5957022 119.002482,15.4199228 119.043498,15.2441406 C119.084514,15.0683585 119.157755,14.9042976 119.263225,14.7519531 C119.3101,14.6816403 119.436075,14.6054692 119.641154,14.5234375 C119.846234,14.4414058 120.054239,14.3740237 120.265178,14.3212891 C120.476116,14.2685544 120.654826,14.2509765 120.801311,14.2685547 C120.947796,14.2861329 120.991741,14.353515 120.933147,14.4707031 C120.89799,14.5292972 120.842327,14.6230462 120.766154,14.7519531 C120.689982,14.88086 120.607952,15.0214836 120.520061,15.1738281 C120.43217,15.3261726 120.350139,15.4667962 120.273967,15.5957031 C120.197795,15.72461 120.142131,15.8124998 120.106975,15.859375 C120.048381,15.9648443 119.975139,16.2050762 119.887248,16.5800781 C119.799357,16.95508 119.705608,17.4062474 119.605998,17.9335937 C119.506388,18.4609401 119.395061,19.0380828 119.272014,19.6650391 C119.148966,20.2919953 119.022991,20.9013642 118.894084,21.4931641 C118.765177,22.0849639 118.627483,22.6357396 118.480998,23.1455078 C118.334513,23.655276 118.182171,24.0566392 118.023967,24.3496094 C117.865763,24.6425796 117.704632,24.8007811 117.540568,24.8242187 C117.376505,24.8476564 117.212444,24.6777362 117.048381,24.3144531 Z M123.054061,24.578125 C123.030624,24.5078121 123.013046,24.2705098 123.001327,23.8662109 C122.989608,23.461912 122.980819,22.9726591 122.97496,22.3984375 C122.9691,21.8242159 122.97203,21.2001987 122.983749,20.5263672 C122.995468,19.8525357 123.010116,19.2197295 123.027694,18.6279297 C123.045272,18.0361299 123.06871,17.5234397 123.098007,17.0898437 C123.127304,16.6562478 123.15953,16.38086 123.194686,16.2636719 C123.264999,16.2285154 123.34117,16.2285154 123.423202,16.2636719 C123.505234,16.2988283 123.578475,16.3457028 123.642929,16.4042969 C123.707382,16.4628909 123.763046,16.5332027 123.809921,16.6152344 C123.856796,16.697266 123.880233,16.7675778 123.880233,16.8261719 L123.880233,24.578125 C123.880233,24.7070319 123.845077,24.8037106 123.774765,24.8681641 C123.704452,24.9326175 123.619492,24.9648437 123.519882,24.9648437 C123.420272,24.9648437 123.326523,24.9326175 123.238632,24.8681641 C123.150741,24.8037106 123.089218,24.7070319 123.054061,24.578125 Z M123.194686,13.5214844 C123.182968,13.4863279 123.174179,13.4365238 123.168319,13.3720703 C123.16246,13.3076169 123.15953,13.2373051 123.15953,13.1611328 C123.15953,13.0849606 123.16246,13.0146488 123.168319,12.9501953 C123.174179,12.8857419 123.182968,12.841797 123.194686,12.8183594 C123.288437,12.7714841 123.393905,12.7304689 123.511093,12.6953125 C123.628281,12.6601561 123.751326,12.6542968 123.880233,12.6777344 C124.079453,12.9355482 124.205428,13.1435539 124.258163,13.3017578 C124.310898,13.4599617 124.313827,13.5830074 124.266952,13.6708984 C124.220077,13.7587895 124.140976,13.8115233 124.029647,13.8291016 C123.918319,13.8466798 123.804062,13.8437501 123.686874,13.8203125 C123.569686,13.7968749 123.461288,13.7587893 123.361679,13.7060547 C123.262069,13.65332 123.206405,13.5917972 123.194686,13.5214844 Z M127.126148,24.578125 C126.926928,24.33203 126.748219,23.9921897 126.590015,23.5585937 C126.431811,23.1249978 126.299977,22.6386746 126.194508,22.0996094 C126.089038,21.5605442 126.012867,20.9951201 125.965992,20.4033203 C125.919117,19.8115205 125.913257,19.2431668 125.948414,18.6982422 C125.98357,18.1533176 126.065601,17.6552757 126.194508,17.2041016 C126.323414,16.7529274 126.507983,16.3955091 126.748218,16.1318359 C126.988454,15.8681627 127.287279,15.7246095 127.644703,15.7011719 C128.002127,15.6777343 128.426927,15.8242172 128.919117,16.140625 C129.329275,16.38672 129.701342,16.6884748 130.035328,17.0458984 C130.369314,17.4033221 130.647631,17.7929666 130.870289,18.2148437 C130.870289,18.1796873 130.873218,18.1152348 130.879078,18.0214844 C130.884937,17.9277339 130.887867,17.8310552 130.887867,17.7314453 C130.887867,17.6318354 130.884937,17.5351567 130.879078,17.4414062 C130.873218,17.3476558 130.870289,17.2832033 130.870289,17.2480469 C130.85857,17.1660152 130.838062,16.9609391 130.808765,16.6328125 C130.779468,16.3046859 130.747242,15.9560565 130.712086,15.5869141 C130.676929,15.2177716 130.647633,14.8691423 130.624195,14.5410156 C130.600757,14.212889 130.589039,14.0078129 130.589039,13.9257812 C130.57732,13.7968744 130.568531,13.6328135 130.562672,13.4335937 C130.556812,13.234374 130.553883,13.0380869 130.553883,12.8447266 C130.553883,12.6513662 130.556812,12.4843757 130.562672,12.34375 C130.568531,12.2031243 130.57732,12.1328125 130.589039,12.1328125 L130.729664,11.9921875 C130.846852,11.8632806 130.961109,11.8398433 131.072437,11.921875 C131.183766,12.0039067 131.283374,12.1386709 131.371265,12.3261719 C131.459156,12.5136728 131.538257,12.7363268 131.60857,12.9941406 C131.678883,13.2519544 131.740406,13.503905 131.79314,13.75 C131.845875,13.996095 131.883961,14.2128897 131.907398,14.4003906 C131.930836,14.5878916 131.948414,14.7050779 131.960133,14.7519531 C131.971851,14.8457036 131.98064,15.0859356 131.9865,15.4726562 C131.992359,15.8593769 131.995289,16.3164036 131.995289,16.84375 L131.995289,18.5224609 C131.995289,19.1142608 131.998218,19.6621069 132.004078,20.1660156 C132.009937,20.6699244 132.018726,21.0917952 132.030445,21.4316406 C132.042164,21.7714861 132.065601,21.9472656 132.100758,21.9589844 L132.399586,22.0820312 L132.399586,24.0332031 C132.399586,24.1503912 132.340993,24.2031251 132.223804,24.1914062 C132.106616,24.1796874 131.977711,24.1416019 131.837086,24.0771484 C131.69646,24.012695 131.567555,23.9335942 131.450367,23.8398437 C131.333179,23.7460933 131.274586,23.6699222 131.274586,23.6113281 L131.274586,22.2226562 C131.063647,22.5976581 130.832204,22.9580061 130.58025,23.3037109 C130.328295,23.6494158 130.049978,23.9511706 129.745289,24.2089844 C129.4406,24.4667982 129.0949,24.6572259 128.708179,24.7802734 C128.321459,24.9033209 127.887869,24.9296879 127.407398,24.859375 L127.126148,24.578125 Z M127.407398,23.7519531 C127.419117,23.7636719 127.463062,23.7900389 127.539234,23.8310547 C127.615406,23.8720705 127.665211,23.8925781 127.688648,23.8925781 C128.26287,23.962891 128.766771,23.8457046 129.200367,23.5410156 C129.633963,23.2363266 129.988451,22.8378931 130.263843,22.3457031 C130.539236,21.8535132 130.741382,21.3173857 130.870289,20.7373047 C130.999196,20.1572237 131.04607,19.6386742 131.010914,19.1816406 C130.729662,19.3925792 130.515797,19.5156248 130.369312,19.5507812 C130.222827,19.5859377 130.117359,19.5654301 130.052906,19.4892578 C129.988453,19.4130856 129.947437,19.2988289 129.929859,19.1464844 C129.912281,18.9941399 129.897633,18.8271493 129.885914,18.6455078 C129.874195,18.4638663 129.853687,18.2822275 129.82439,18.1005859 C129.795093,17.9189444 129.727711,17.7695318 129.622242,17.6523437 C129.176927,17.1249974 128.784353,16.785157 128.444508,16.6328125 C128.104662,16.480468 127.817556,16.4658197 127.583179,16.5888672 C127.348803,16.7119147 127.158375,16.9433577 127.01189,17.2832031 C126.865405,17.6230486 126.759938,18.0214821 126.695484,18.4785156 C126.631031,18.9355492 126.604664,19.4277317 126.616383,19.9550781 C126.628101,20.4824245 126.666187,20.992185 126.73064,21.484375 C126.795094,21.976565 126.885913,22.4248027 127.003101,22.8291016 C127.120289,23.2334005 127.255054,23.5410146 127.407398,23.7519531 Z M138.106438,24.859375 C137.661123,24.6718741 137.324213,24.4316421 137.095696,24.1386719 C136.867179,23.8457017 136.700189,23.5234393 136.594719,23.171875 C136.48925,22.8203107 136.424798,22.4453145 136.40136,22.046875 C136.377922,21.6484355 136.348626,21.2441427 136.313469,20.8339844 C136.043937,20.8808596 135.780267,20.9013672 135.522454,20.8955078 C135.26464,20.8896484 135.039056,20.8662111 134.845696,20.8251953 C134.652336,20.7841795 134.514642,20.7255863 134.43261,20.6494141 C134.350578,20.5732418 134.341789,20.4912114 134.406243,20.4033203 C134.470696,20.3154292 134.631827,20.2246098 134.889641,20.1308594 C135.147455,20.0371089 135.528311,19.9492192 136.032219,19.8671875 C136.102532,19.8671875 136.20507,19.8320316 136.339836,19.7617187 C136.474603,19.6914059 136.553704,19.6386721 136.577141,19.6035156 C136.659173,19.4863275 136.735344,19.2841811 136.805657,18.9970703 C136.87597,18.7099595 136.949211,18.3906268 137.025383,18.0390625 C137.101556,17.6874982 137.195305,17.3330096 137.306633,16.9755859 C137.417962,16.6181623 137.558586,16.3105482 137.728508,16.0527344 C137.898431,15.7949206 138.103507,15.6132818 138.343743,15.5078125 C138.583978,15.4023432 138.879874,15.4257805 139.231438,15.578125 C139.266594,15.6015626 139.316399,15.6455075 139.380852,15.7099609 L139.785149,16.1142578 C139.849602,16.1787113 139.893547,16.2285154 139.916985,16.2636719 C139.96386,16.8378935 139.928704,17.3242168 139.811516,17.7226562 C139.694328,18.1210957 139.536127,18.4580064 139.336907,18.7333984 C139.137687,19.0087904 138.915033,19.2402334 138.668938,19.4277344 C138.422843,19.6152353 138.18847,19.7939445 137.965813,19.9638672 C137.743156,20.1337899 137.552728,20.3066397 137.394524,20.4824219 C137.23632,20.658204 137.15136,20.8749987 137.139641,21.1328125 C137.116204,21.4375015 137.104485,21.7158191 137.104485,21.9677734 C137.104485,22.2197278 137.133782,22.4570301 137.192376,22.6796875 C137.25097,22.9023449 137.350578,23.1132803 137.491204,23.3125 C137.631829,23.5117197 137.836905,23.7050772 138.106438,23.8925781 C138.305658,24.0332038 138.551749,24.0683597 138.844719,23.9980469 C139.13769,23.927734 139.436515,23.8046884 139.741204,23.6289062 C140.045893,23.4531241 140.344718,23.2539074 140.637688,23.03125 C140.930658,22.8085926 141.182609,22.6181649 141.393547,22.4599609 C141.604486,22.301757 141.756828,22.199219 141.850579,22.1523437 C141.944329,22.1054685 141.944329,22.1757803 141.850579,22.3632812 C141.686515,22.7500019 141.493158,23.1367168 141.270501,23.5234375 C141.047843,23.9101582 140.784174,24.2382799 140.479485,24.5078125 C140.174796,24.7773451 139.826167,24.9560542 139.433586,25.0439453 C139.041006,25.1318364 138.598628,25.0703136 138.106438,24.859375 Z M137.543938,18.4785156 L137.473626,18.8300781 C137.438469,19.0058603 137.420891,19.1230466 137.420891,19.1816406 C137.43261,19.1933594 137.453118,19.1992187 137.482415,19.1992187 C137.511712,19.1992187 137.532219,19.1933594 137.543938,19.1816406 C137.579094,19.158203 137.631828,19.1201175 137.702141,19.0673828 L137.913079,18.9091797 C137.983392,18.856445 138.050774,18.8037112 138.115227,18.7509766 C138.179681,18.6982419 138.223625,18.6601564 138.247063,18.6367187 C138.598627,18.2851545 138.847648,17.9599624 138.994133,17.6611328 C139.140618,17.3623032 139.21386,17.1191416 139.21386,16.9316406 C139.21386,16.7441397 139.152337,16.6181644 139.02929,16.5537109 C138.906242,16.4892575 138.759759,16.5097651 138.589836,16.6152344 C138.419914,16.7207037 138.241205,16.9228501 138.053704,17.2216797 C137.866203,17.5205093 137.696283,17.9394504 137.543938,18.4785156 Z M144.674619,24.859375 C144.334773,24.6015612 144.082823,24.3173844 143.918759,24.0068359 C143.754696,23.6962875 143.646299,23.3681658 143.593564,23.0224609 C143.540829,22.6767561 143.540829,22.3193378 143.593564,21.9501953 C143.646299,21.5810528 143.725399,21.2089862 143.830869,20.8339844 C143.901181,20.5996082 143.968564,20.318361 144.033017,19.9902344 C144.09747,19.6621077 144.176571,19.3310564 144.270322,18.9970703 C144.364072,18.6630843 144.475399,18.3525405 144.604306,18.0654297 C144.733213,17.7783189 144.891414,17.5527352 145.078915,17.3886719 C145.196104,17.2832026 145.348446,17.2041018 145.535947,17.1513672 C145.723448,17.0986325 145.916805,17.069336 146.116025,17.0634766 C146.315245,17.0576172 146.508602,17.0605468 146.696103,17.0722656 C146.883604,17.0839844 147.035946,17.0957031 147.153134,17.1074219 C147.668762,17.1425783 148.067195,17.3154281 148.348447,17.6259766 C148.629698,17.936525 148.817196,18.3203102 148.910947,18.7773437 C149.004697,19.2343773 149.019345,19.7441378 148.954892,20.3066406 C148.890439,20.8691434 148.761534,21.4228488 148.568173,21.9677734 C148.374813,22.512698 148.131651,23.0253882 147.838681,23.5058594 C147.545711,23.9863305 147.226378,24.3759751 146.880673,24.6748047 C146.534968,24.9736343 146.171691,25.1523435 145.790829,25.2109375 C145.409968,25.2695315 145.037902,25.1523452 144.674619,24.859375 Z M144.93829,23.8925781 C145.231261,24.1269543 145.547664,24.1796881 145.887509,24.0507812 C146.227355,23.9218744 146.552547,23.6816424 146.863095,23.3300781 C147.173644,22.9785139 147.451961,22.5537134 147.698056,22.0556641 C147.944151,21.5576147 148.119931,21.0595728 148.2254,20.5615234 C148.330869,20.0634741 148.348447,19.6005881 148.278134,19.1728516 C148.207821,18.745115 148.020323,18.4257823 147.715634,18.2148437 C147.282038,17.9218735 146.871886,17.8310541 146.485165,17.9423828 C146.098445,18.0537115 145.758604,18.2822248 145.465634,18.6279297 C145.172664,18.9736345 144.929502,19.4042943 144.736142,19.9199219 C144.542782,20.4355495 144.416806,20.9511693 144.358212,21.4667969 C144.299618,21.9824245 144.314267,22.4628884 144.402158,22.9082031 C144.490049,23.3535179 144.668758,23.6816396 144.93829,23.8925781 Z" id="Watch-Our-Video" stroke="#000000" fill="#000000"></path>
                        <g id="Group-44" transform="translate(166.775714, 13.184257) rotate(-119.000000) translate(-166.775714, -13.184257) translate(158.775714, 1.184257)" stroke="#4A4A4A" stroke-linecap="round" stroke-width="1.5">
                            <path d="M6.97736747,0 C9.08841681,7.72955429 9.28253535,15.008329 7.55972309,21.8363243" id="Path-3" transform="translate(7.849177, 10.918162) scale(-1, 1) translate(-7.849177, -10.918162) "></path>
                            <path d="M6.28948653,11.8760237 L4.82460186,19.6686804 C4.74975265,20.0668512 4.92254607,20.4708388 5.26217905,20.6917274 L11.6509414,24.8468148" id="Path-4" transform="translate(8.229143, 18.361419) scale(-1, 1) rotate(-71.000000) translate(-8.229143, -18.361419) "></path>
                        </g>
                    </g>
                </g>
            </g>
        </g>
    </g>
</svg>